<svg xmlns="http://www.w3.org/2000/svg" shape-rendering="geometricPrecision" text-rendering="geometricPrecision" image-rendering="optimizeQuality" fill-rule="evenodd" clip-rule="evenodd" viewBox="0 0 380 511.38"><path fill-rule="nonzero" d="M0 511.38V0h179.09C241.18 0 288.3 11.87 320.3 35.72c32.13 23.73 48.19 58.62 48.19 104.53 0 25.05-6.47 47.23-19.42 66.29-12.83 19.06-30.69 33.09-53.7 41.95 26.25 6.6 46.87 19.79 61.97 39.69 15.11 19.89 22.66 44.22 22.66 73 0 49.14-15.7 86.3-46.99 111.6-31.41 25.29-76.12 38.12-134.14 38.6H0zm105.37-222.25v137.38h90.26c24.82 0 44.24-5.88 58.14-17.63 13.91-11.74 20.86-28.05 20.86-48.78 0-46.63-24.22-70.25-72.64-70.97h-96.62zm0-74.8h78.04c53.1-.95 79.71-22.05 79.71-63.53 0-23.13-6.71-39.8-20.26-49.99-13.42-10.18-34.64-15.22-63.77-15.22h-73.72v128.74z"/></svg>