<?xml version="1.0" encoding="UTF-8"?>
<svg fill="none" viewBox="0 0 49 61" xmlns="http://www.w3.org/2000/svg">
<g opacity=".9">
<path d="m7.0742 29.486c0.10441 1.1735 0.82037 2.205 1.6258 3.0571s1.7377 1.5995 2.4537 2.5263c0.7159 0.9343 1.1336 2.2349 1.0142 3.2962-0.2088-1.2407-0.9471-2.4366-1.9539-3.1841-0.87263-0.6577-1.9764-1.0314-2.6625-1.8835 0.08203 0.9119 0.5668 1.7116 1.238 2.3245 0.36544 0.3364 0.79055 0.6129 1.156 0.9493 0.36544 0.3363 0.69364 0.7549 0.76814 1.2557-0.4624-0.583-1.2753-0.8446-2.0136-0.9642-0.73088-0.1196-1.4767-0.1046-2.2076-0.2467 0.798 1.0091 1.8496 1.8014 3.0578 2.2498-0.63393 0.1047-1.3424 0.172-1.9838 0.1196-0.64138-0.0523-1.2902-0.2691-1.7377-0.7399-0.44747-0.4709-0.64138-1.1362-0.75325-1.779-0.21628-1.2631-0.18645-2.5712 0.02983-3.8343 0.11187-0.6428 0.26849-1.2856 0.58172-1.8612 0.32069-0.583 0.78309-1.0389 1.3872-1.2856z" fill="#C1C1C1"/>
<path d="m11.146 23.186c0.0299 0.5381-0.1715 1.0165 0.0895 1.4874 0.6414 1.1734 0.4923 3.2812 1.2977 4.5967 0.276 0.4485 0.7831 0.8147 1.0516 1.2632s0.3878 0.8895 0.5668 1.3529c-0.0298-1.5472-1.0068-2.2573-1.3052-3.8792-0.1566-0.8671-0.2461-1.7491-0.4176-2.6161-0.1641-0.8595-0.5444-1.7191-1.2828-2.2049z" fill="#C1C1C1"/>
<path d="m17.657 16.93c0.0447 1.1511-0.1939 2.2947-0.4773 3.4158-0.2834 1.1137-0.619 2.2274-0.7831 3.3635-0.1566 1.1436-0.1268 2.3395 0.2983 3.4083-0.4773-1.308-0.1566-2.8253 0.358-4.1184 0.5146-1.293 1.2306-2.5114 1.596-3.8568 0.4027-1.4649 0.3654-3.0495-0.1044-4.4921-0.4251 0.8147-0.9248 1.3678-0.8875 2.2797z" fill="#C1C1C1"/>
<path d="m29.523 4.5817c-0.0969 2.5712-0.6414 5.2022-1.9912 7.3549-0.8503 1.3603-2.0883 2.5487-2.409 4.1258-0.0149-0.8371 0.3133-1.6817 0.716-2.4142s0.895-1.4201 1.3126-2.1452c0.7905-1.3827 1.2977-2.9299 1.4692-4.5145 0.0895-0.85208 0.716-1.5397 0.9024-2.4068z" fill="#C1C1C1"/>
<path d="m37.935 1.6144c-0.798 0.2616-1.4021 0.9343-1.8123 1.6668-0.4102 0.7325-0.6637 1.5472-0.9994 2.3171-0.3281 0.74745-0.7383 1.4575-1.2305 2.1078 1.335-1.3006 2.118-3.0645 3.3859-4.4323 0.3431-0.36625 0.716-0.7026 1.0441-1.0763s0.619-0.79976 0.7458-1.2856c-0.4177 0.25413-0.6712 0.54564-1.1336 0.7026z" fill="#C1C1C1"/>
<path d="m48.056 7.3996c-0.1492-0.49331-0.5221-0.91188-0.9621-1.181s-0.9546-0.41857-1.4618-0.49331c-1.0068-0.15696-1.9838 0.0598-2.9085 0.49331-1.4394 0.6727-2.409 1.7789-3.4829 2.8552-1.0739 1.0688-2.4537 1.891-3.9453 2.1526 1.1038 0.0748 2.2151-0.3214 3.192-0.8371 0.977-0.52322 1.8422-1.2183 2.6924-1.9284 0.6712-0.55311 1.3349-1.1212 2.0882-1.5547 0.7532-0.43352 1.6034-0.73997 2.4686-0.7325 0.8651 0.00748 1.7973 0.53069 2.3194 1.2258z" fill="#C1C1C1"/>
<path d="m41.694 9.2906c-0.7906 0.55311-1.3798 1.3454-1.9316 2.1302-0.5519 0.7923-1.0814 1.607-1.7899 2.2722-1.5438 1.4426-3.8036 2.0331-5.0938 3.6999 1.6482-1.4276 4.0049-1.8088 5.6233-3.2663 0.6936-0.6204 1.2082-1.4127 1.7228-2.19 0.5071-0.7774 1.0292-1.5697 1.7153-2.19 0.6861-0.62038 1.4916-0.98662 2.4164-1.0539-0.1194-0.08222-0.358-0.08222-0.4997-0.0897-0.179-0.00747-0.3655 0-0.5445 0.02243-0.3729 0.05232-0.7308 0.16443-1.0664 0.32887-0.194 0.10464-0.3804 0.20928-0.5519 0.33635z" fill="#C1C1C1"/>
<path d="m33.535 19.568c-0.9024 0.9567-1.5736 2.1751-2.6475 2.9375-0.5967 0.426-1.2828 0.6876-1.9316 1.0165-0.6489 0.3289-1.2903 0.7474-1.6557 1.3827 0.7607-0.71 1.7825-0.9941 2.7744-1.2856s2.0285-0.583 2.8191-1.2482c0.9844-0.8296 1.4692-2.1227 2.4163-2.9823 0.4475-0.4111 0.7085-0.9567 1.1411-1.3827 0.4326-0.4261 0.8875-0.8297 1.2678-1.3081 0.3804-0.4783 0.6862-1.024 0.7682-1.6219-0.3654 0.3289-0.8204 0.5755-1.2977 0.725-0.44 0.7923-1.2305 1.3828-2.0733 1.7565-0.9993 0.4335-2.0882 0.6129-3.1547 0.8521-1.0665 0.2466-2.1404 0.5755-2.9906 1.2632 1.2604-0.5532 2.5804-0.9493 3.9378-1.1735 0.9397-0.1495 1.9241-0.2392 2.7221-0.7549-0.5071 0.5531-1.2827 0.8221-2.0062 1.0239-0.7234 0.2019-1.4766 0.3513-2.1255 0.7325 0.4475-0.2541 0.9621-0.3587 1.4618-0.4559s1.0143-0.157 1.5139-0.2691c-0.343 0.2168-0.6488 0.4933-0.9397 0.7923z" fill="#C1C1C1"/>
<path d="m32.148 22.767c-0.8278 0.299-1.7675 0.7475-2.2896 1.465-0.2461 0.3363-0.4475 0.8222-0.6414 1.3155-0.3058 0.7923-0.8726 1.45-1.6184 1.8537-0.0074 0-0.0074 0.0074-0.0149 0.0074-0.7234 0.3887-1.5139 0.6279-2.2821 0.9269-0.7682 0.2989-1.5289 0.6652-2.1031 1.2482 0.7607-0.4859 1.5363-0.8969 2.394-1.181 0.6637-0.2242 1.3498-0.3737 1.9912-0.6428 0.3133-0.1345 0.6265-0.2915 0.9024-0.4933-0.8949 1.5995-1.8644 2.788-3.4754 3.7073 1.4991-0.5157 2.849-1.4052 3.8558-2.631 0.7607-0.9343 1.3201-2.0181 2.0286-2.9897 0.6786-0.9194 1.4915-1.7416 2.4089-2.4217-0.3878-0.0598-0.7906-0.299-1.156-0.1645z" fill="#C1C1C1"/>
<path d="m23.661 33.5c1.1858-0.5082 2.4238-0.9791 3.3784-1.8462 0.2536-0.2317 0.4848-0.4858 0.7533-0.6951 0.2685-0.2167 0.5817-0.3887 0.9173-0.4186-0.1193 1.1436-0.9546 2.1004-1.9465 2.6834-0.9844 0.5755-2.1181 0.8446-3.2293 1.1211-0.8054 0.2018-1.6184 0.4261-2.3716 0.7923-0.2014 0.0972-0.3953 0.2317-0.5966 0.3364 0.0894-0.1794 0.3132-0.3439 0.4623-0.4709 0.1865-0.157 0.3804-0.3065 0.5818-0.441 0.4027-0.2766 0.8427-0.5083 1.2827-0.7176 0.2611-0.127 0.5146-0.2317 0.7682-0.3438z" fill="#C1C1C1"/>
<path d="m24.988 35.466c-1.2007-0.1644-2.4462-0.1046-3.5798 0.314-1.1411 0.4111-2.1628 1.1959-2.7445 2.2647 0.5742-0.7848 1.5214-1.2632 2.4686-1.4874 0.9471-0.2242 1.9316-0.1943 2.9086-0.1271 0.4325 0.0299 0.8725 0.0748 1.2902-0.0448 0.4176-0.1121 0.8129-0.4261 0.8949-0.8521-0.44 0.0374-0.8054-0.0075-1.238-0.0673z" fill="#C1C1C1"/>
<path d="m22.341 43.419c0.701 0.6727 1.1709 1.7266 1.6482 2.5787 0.2535-1.0166-0.1716-1.921-0.6713-2.6011-0.4996-0.6802-1.2231-1.181-2.036-1.4127-0.2834-0.0822-0.5742-0.1271-0.8726-0.1196-0.0671 0-0.3803-0.0075-0.4251 0.0523-0.0522 0.0897 0.1492 0.142 0.2014 0.157 0.5146 0.1719 0.9994 0.4335 1.4394 0.7474 0.261 0.1794 0.4922 0.3812 0.716 0.598z" fill="#C1C1C1"/>
<path d="m40.792 5.561c-4.3256 1.4426-11.925 9.9484-11.925 9.9484-4.0795 4.8135-7.7637 10.15-10.411 15.883-1.1709 2.5413-2.3493 5.09-3.2666 7.7435-0.9099 2.6459-1.5139 5.4339-1.6034 8.2368 1.059-0.9792 2.4835-1.5398 3.9228-1.5398 1.4394 0 2.8713 0.5531 3.9304 1.5248-0.0672-1.024-0.1343-2.0629-0.455-3.0346s-0.9397-1.891-1.8495-2.3619c1.0366-0.6054 2.379-0.3139 3.4306 0.2541 1.059 0.5755 1.9689 1.3977 3.0578 1.906 1.0888 0.5083 2.4909 0.6353 3.4008-0.142-1.2604-0.6503-2.1628-1.8163-3.11-2.8851-0.9397-1.0689-2.0509-2.1078-3.453-2.362 0.7085-0.4409 1.514-0.7698 2.3343-0.8894-0.8203-0.2168-1.6705-0.4335-2.5058-0.2915-1.1187 0.1868-2.0286 0.9791-2.8639 1.749-0.701 0.6428-1.4468 1.308-2.3194 1.6369 1.5214-6.3757 4.1466-12.019 7.1-16.817 0.5891-0.9642 1.4692-1.7192 2.5133-2.1452 0.0074 0 0.0149-0.0075 0.0224-0.0075 1.4393-0.5755 3.0503-0.7773 4.3629-1.5846-1.8869 0.7325-3.9677 0.9941-5.7576 1.9509 7.0776-10.711 15.445-16.773 15.445-16.773z" fill="#C1C1C1"/>
<path d="m19.678 17.834c0.1939-0.7101 0.358-1.4276 0.5519-2.1302 0.2387-0.8521 0.5966-1.8088 1.1709-2.631-0.2312 0.4933-0.3878 1.0314-0.4848 1.5696-0.179 0.9567-0.2088 1.9359-0.3281 2.9076-0.0895 0.7474-0.2387 1.4799-0.44 2.2049 0.9397-2.0854 1.2231-4.5071 2.5133-6.413 0.7831-1.1586 1.8794-2.048 2.9682-2.9225 1.0814-0.87455 2.1852-1.7715 2.9608-2.93 0.6713-1.0016 1.074-2.2573 0.895-3.4382-0.0746 0.91187-0.4176 1.8088-0.9546 2.5488-0.3431-0.74744-1.2753-0.98662-1.9316-0.50078l-23.933 17.744-1.499 1.1137c-1.1038 0.8222-1.4767 2.3021-0.89495 3.5504 3.1547 6.7269 6.8091 14.523 10.217 21.78 0.1268 0.2691 0.5295 0.2242 0.5892-0.0673 0.179-0.8894 0.3654-1.7789 0.4699-2.6833 0.2162-1.8835 0.0373-3.939-1.1411-5.4264-0.63393-0.8072-1.514-1.3828-2.2821-2.0629-0.63393-0.5681-1.2231-1.2707-1.4394-2.0854 0.17154 0.2242 0.41019 0.3961 0.66376 0.5157 0.38036 0.1719 0.80546 0.2392 1.2231 0.2915 0.34307 0.0374 0.67868 0.0748 1.0143 0.1495-0.1417-0.1569-0.26103-0.3214-0.38035-0.4933-0.26849-0.3812-0.49223-0.7923-0.75325-1.181-0.32815-0.4858-0.70105-0.9343-1.1262-1.3453 0.32815 0.1121 0.67121 0.1943 1.0068 0.2915 0.5668 0.1644 1.1411 0.3587 1.6109 0.725 0.3505 0.2691 0.619 0.6278 0.8278 1.0165-0.164-0.9792-0.6563-1.906-1.2454-2.7207-0.55935-0.7699-1.2156-1.4799-1.678-2.3171-0.38035-0.6876-0.62646-1.45-0.72342-2.2348 0.26103 0.8894 0.76817 1.7042 1.417 2.3694 0.72342 0.7325 1.6184 1.2931 2.3045 2.0629 0.7384 0.8297 1.2977 2.2498 1.335 3.371 0.1491-0.7699 0-1.607-0.276-2.3545-0.3579-0.9492-0.9098-1.8162-1.3498-2.7281-0.4401-0.9194-0.76821-1.9359-0.61905-2.9375 0.18645-1.2333 1.059-2.2572 1.4618-3.4382 0.2909-0.8745 0.3058-1.8312 0.0597-2.7207 0.3207 0.4634 0.522 1.0091 0.6563 1.5622 0.1939 0.7773 0.2759 1.592 0.5146 2.3619 0.179 0.583 0.4624 1.1137 0.8353 1.5472-0.4102-1.2781-0.4177-2.7132-0.1119-4.0287 0.4475-1.9135 1.4767-3.6401 2.6177-5.2396 0.6787-0.9492 1.4096-1.8761 1.9391-2.9225 0.2834-0.5681 0.5071-1.1735 0.6115-1.8013 0.0299 1.5098-0.1939 3.0271-0.6637 4.4622-0.2685 0.8222-0.619 1.6145-0.8726 2.4441-0.2014 0.6578-0.3431 1.3529-0.3207 2.0331 0.082-0.725 0.3505-1.4501 0.6861-2.1078 0.5445-1.0539 1.2679-2.0106 1.7601-3.0944 0.2312-0.5382 0.4102-1.0988 0.5668-1.6668z" fill="#33353D"/>
<path d="m47.869 9.1636c-0.0522 0.05979-0.1119 0.11959-0.1641 0.17938 0.5445-0.41857 0.9621-1.0165 1.156-1.6817 0.3058-1.0464 0.0895-2.2124-0.4773-3.1393s-1.4692-1.6294-2.476-2.0555c-0.9994-0.42604-2.1032-0.58301-3.192-0.56806-1.7974 0.02242-3.5798 0.50079-5.146 1.3753 0.2685-0.2915 0.5519-0.56805 0.8129-0.8745 0.5967-0.69512 1.0367-1.5248 1.2902-2.3993-0.4251 0.44099-0.9173 0.82966-1.4393 1.1585-1.0218 0.65775-2.1479 1.1436-3.2368 1.6818-1.857 0.9044-3.6842 2.0181-4.9073 3.6849-0.9099 1.2557-1.4245 2.7431-2.0733 4.1558-0.44 0.9642-0.9695 1.9284-1.6855 2.6983 0.7682-0.5756 1.3722-1.3977 1.8496-2.2423 0.7085-1.2558 1.2156-2.6236 2.0509-3.8045 1.2231-1.7341 3.0577-2.915 4.9073-3.9465 1.1635-0.65027 2.3642-1.2557 3.4978-1.9658-0.1492 0.23918-0.3282 0.45594-0.5221 0.65027-0.4549 0.46342-0.9844 0.84461-1.3946 1.3529-0.44 0.54564-0.716 1.2109-1.0441 1.8312 1.4916-1.2482 3.274-2.1452 5.1609-2.5936 1.1187-0.26908 2.2896-0.37372 3.4306-0.19433 1.1411 0.17938 2.2449 0.65775 3.0802 1.4575 0.8352 0.79976 1.3648 1.9359 1.3349 3.0869-0.0074 0.77734-0.3057 1.5622-0.8129 2.1526z" fill="#33353D"/>
<path d="m47.996 7.1828c-0.1566-0.26908-0.3729-0.50826-0.6264-0.68765-0.5669-0.38867-1.2903-0.50078-1.9764-0.45594-1.7153 0.11212-3.2293 1.1212-4.5493 2.2199-0.9994 0.82218-1.954 1.7266-3.028 2.4292 0.6041-0.0299 1.2008-0.284 1.7154-0.6278 0.6339-0.42608 1.1634-0.98666 1.7302-1.5099 0.8278-0.76239 1.7452-1.45 2.7818-1.8761 0.7756-0.31393 1.6408-0.47089 2.4537-0.27655 0.7309 0.17191 1.4021 0.65774 1.7078 1.3304-0.0447-0.18686-0.1118-0.37372-0.2088-0.54563z" fill="#33353D"/>
<path d="m22.706 57.366c5.0416-2.5787 19.734-10.076 24.537-12.535l-0.0597 0.9417c-0.082 1.4277-0.9919 2.6759-2.3194 3.2066-7.7488 3.0719-23.806 9.4476-23.806 9.4476-0.1193 0.0449-0.1939-0.1196-0.0821-0.1794 0.0075 0 0.6414-0.3288 1.7303-0.8819z" fill="#33353D"/>
<path d="m22.124 57.067c-0.5742 0.4036-0.8949 0.6428-0.8875 0.6652l21.822-11.824c1.6854-0.9119 2.6326-2.7655 2.3865-4.6715v-0.0224c-5.1087 3.4457-19.577 13.207-23.321 15.853z" fill="#33353D"/>
<path d="m47.854 48.928-28.907 10.569c-0.1342 0.0523-0.2312-0.1271-0.1119-0.2168l22.948-17.019c1.4916-1.1063 1.9987-3.1169 1.2082-4.7986-2.4164-5.1499-5.1087-10.89-7.7563-16.541-0.2013-0.426-0.1342-0.9268 0.1641-1.2856 0.4624-0.5606 0.9919-1.0688 1.4692-1.6219 0.8353-0.9792 1.4991-2.1004 1.9465-3.3112-0.3281 0.3214-0.7159 0.583-1.1336 0.7698-0.5518 0.2542-1.1634 0.3887-1.7675 0.4784 1.4543-0.5905 2.6923-1.4351 3.6022-2.7207 0.4848-0.6801 0.798-1.3902 1.2231-2.0554v-0.0075c0.1492-0.2392 0.3207-0.4784 0.5146-0.7101 0.1193-0.142 0.2461-0.2765 0.3729-0.4036l0.0074-0.0075c0.895-0.86701 1.9615-1.293 3.0802-1.3828-0.1641-0.01494-0.3282-0.01494-0.4848-0.00747-0.9695 0.03737-1.9316 0.39614-2.6774 1.0315-1.2902 1.1136-1.8346 2.8926-3.0428 4.0886-0.8875 0.8819-2.0733 1.3827-3.1846 1.9433-0.7308 0.3737-1.5885 0.8521-2.2597 1.4426-0.2163 0.1868-0.4102 0.3886-0.5743 0.6054 1.3947-1.2856 3.0951-1.181 4.527-1.6967 0.4102-0.1495 0.798-0.3438 1.1485-0.6428-0.2983 0.8446-0.7309 1.3006-1.3648 1.9508-0.1044 0.1047-0.2088 0.2168-0.3207 0.3214-0.7532 0.725-1.5811 1.3828-2.2672 2.1751-0.6339 0.7325-1.156 1.5696-1.9018 2.1825-0.9397 0.7774-2.1479 1.1361-3.2591 1.6444-0.6339 0.299-1.2678 0.6802-1.7526 1.1884-0.0448 0.0449-0.0895 0.0897-0.1268 0.142 0.7085-0.5157 1.5662-0.8521 2.4089-1.1211 0.2685-0.0897 0.5445-0.1719 0.8129-0.2467 0.4475-0.1271 0.895-0.2392 1.3499-0.3438 0.1492-0.0299 0.2983-0.0673 0.4475-0.1047-0.798 0.5457-1.4767 1.2557-1.9764 2.0779-0.522 0.8521-0.8502 1.8088-1.3946 2.6385-0.9024 1.3828-2.3194 2.332-3.8259 3.0421 0.7383-0.1869 1.4543-0.441 2.1106-0.8147 0.5966-0.3364 1.1411-0.7774 1.5662-1.3155-0.0523 0.0897-0.097 0.1794-0.1492 0.2616-0.977 1.6145-2.3269 2.175-4.0273 2.9449-0.8651 0.3438-1.7899 0.6503-2.5059 1.2258 0.5892-0.2466 1.2306-0.3812 1.8645-0.4783 0.6862-0.1122 1.3797-0.1869 2.051-0.3439 0.1789-0.0448 0.3579-0.0897 0.5369-0.1495 0.6116-0.1943 1.2157-0.5007 1.6781-0.9417-0.4773 0.7997-1.2977 1.3977-2.1554 1.8013-1.0292 0.4784-2.1479 0.7325-3.2218 1.1212-0.7756 0.2765-1.5513 0.6502-2.1703 1.1809-0.0522 0.0449-0.0969 0.0897-0.1491 0.1346 0.8129-0.3812 1.7451-0.5158 2.6326-0.3588 0.1939 0.0374 0.3878 0.0822 0.5817 0.1345 0.3655 0.1047 0.7235 0.2243 1.0889 0.3289 0.3282 0.0897 0.6638 0.157 1.0068 0.1719-0.5295 0.1495-1.1112 0.1121-1.6706 0.0897-0.7234-0.0299-1.4617-0.0374-2.1702 0.1271-0.4624 0.1046-0.9173 0.2915-1.2977 0.568 0.0448-0.0075 0.097-0.0149 0.1492-0.0224 0.2685-0.0299 0.5369-0.0149 0.8054 0.0374 0.5295 0.1046 1.0292 0.3288 1.5214 0.5606 0.2909 0.1345 0.5818 0.269 0.8801 0.3737h-0.0224c-0.4773 0.0523-0.9397 0.1943-1.3648 0.4185-0.537 0.2915-0.9994 0.7101-1.499 1.0614 0.4996-0.0075 0.9993 0.1271 1.4468 0.3513 0.7458 0.3887 1.335 1.039 1.7824 1.749 0.4028 0.6503 0.7085 1.3678 1.2157 1.9434 0.3878 0.441 0.8949 0.7848 1.4468 0.9866-1.417-0.2467-2.5655-1.0165-3.5798-1.7939-0.5817-0.441-1.1634-0.9343-1.8719-1.1361-0.716-0.2018-1.4991-0.0822-2.1927 0.2018-0.44 0.1794-0.8576 0.4186-1.2603 0.6802 0.4251 0.1719 0.8203 0.441 1.141 0.7773 0.4997 0.5158 0.8502 1.1735 1.074 1.8612 0.1342 0.4036 0.2237 0.8296 0.2908 1.2482-0.4027-0.5232-0.8949-0.9567-1.4916-1.2408-1.1783-0.5605-2.6401-0.4036-3.7364 0.3065-0.5295 0.3438-0.977 0.8072-1.3201 1.3379 0.1492-0.7624 0.3058-1.5248 0.4774-2.2872 1.1858-5.1872 3.0204-10.225 5.4666-14.964 0.6041-1.1885 1.2604-2.347 1.9465-3.4906 0.6862-1.1436 1.4021-2.2722 2.1554-3.371 1.5065-2.1974 3.1547-4.3052 4.9148-6.3084 1.7675-2.0031 3.6469-3.9016 5.6531-5.673 0.9994-0.8895 2.0285-1.7416 3.0801-2.5563 0.5295-0.41109 1.0665-0.80723 1.6109-1.1959 0.4848-0.34383 0.9696-0.6727 1.4692-0.98663l0.0075-0.00747h0.0075c0.0596-0.03737 0.1193-0.07475 0.179-0.11212h0.0074c0.0671-0.04484 0.1119-0.11959 0.097-0.19433-0.0224-0.15696-0.1865-0.22423-0.3058-0.15697-0.5892 0.34383-1.1485 0.71755-1.7079 1.0913-0.5593 0.3812-1.1038 0.76987-1.6482 1.1735-1.0814 0.80724-2.133 1.6444-3.1547 2.5264-2.0509 1.749-3.9825 3.6326-5.8097 5.6282-1.8198 1.9882-3.5202 4.096-5.0938 6.2935-0.7831 1.0987-1.5289 2.2274-2.2448 3.3709-0.716 1.1511-1.3947 2.3171-2.0361 3.5055-2.5729 4.7613-4.5344 9.8663-5.8395 15.128-0.6414 2.6384-1.1485 5.3068-1.4692 8.0051-0.3058 2.5338-0.4773 5.0826-0.5221 7.6388-0.0074 0.3588-0.0074 0.7475 0 1.1287 0 0.2167 0.2536 0.3363 0.4177 0.1943 0.2834-0.2392 0.5891-0.5083 0.8576-0.74 0.1865-0.1644 0.2983-0.4036 0.2983-0.6502v-0.0075c0-1.308 0.0373-2.6086 0.1044-3.9091 0.4997 1.0688 0.992 2.1227 1.4767 3.1392 0.798 1.6967 2.6998 2.5712 4.4972 2.0704 5.8544-1.6294 18.563-5.1723 25.946-7.2277 1.9764-0.5158 3.2591-2.4367 3.0056-4.4922zm-27.84-6.8316c0.082-0.0074 0.1566-0.0074 0.2312-0.0074h0.0671c1.7452 0.0299 3.2591 1.3229 3.5351 3.2438-0.1044-0.0747-0.2089-0.142-0.3207-0.2018-0.7011-0.4111-1.4916-0.725-2.0733-1.293-0.5445-0.5232-0.8801-1.2408-1.4394-1.7416z" fill="#33353D"/>
</g>
</svg>
