<svg width="70" height="67" viewBox="0 0 70 67" fill="none" xmlns="http://www.w3.org/2000/svg">
<path d="M29.4883 67.0001V65.6411L67.3693 46.5938V47.9471L29.4883 67.0001Z" fill="#F34C53"/>
<path d="M29.4883 57.4708V56.1118L67.3693 37.0645V38.4234L29.4883 57.4708Z" fill="#F34C53"/>
<path d="M3.78377 52.7146V44.5498L29.4888 57.4709V56.1119L2.43088 42.5059L2.41992 53.3829L29.4888 67.0001V65.6412L3.78377 52.7146Z" fill="#F7595D"/>
<path d="M2.43164 42.5058L29.5005 56.1119L67.3706 37.0645L40.3127 23.4529L2.43164 42.5058Z" fill="#FF6167"/>
<path d="M29.4888 57.4708V64.2822L5.13672 52.0351V45.2292L29.4888 57.4708Z" fill="#F6F6EE"/>
<path d="M29.4883 57.4709V64.2823L64.6636 46.5939V39.7825L29.4883 57.4709Z" fill="#E1E1D9"/>
<path d="M3.7832 44.5498V52.7146L5.1361 52.0351V45.2293L3.7832 44.5498Z" fill="#F34C53"/>
<path d="M29.4882 65.6412L3.7832 52.7146L5.1361 52.0351L29.4882 64.2822L64.6854 46.6272L64.6635 45.2349L67.3693 46.5938L29.4882 65.6412Z" fill="#FF6167"/>
<path d="M29.7617 67.6426V66.2575L68.3728 46.843V48.2225L29.7617 67.6426Z" fill="#DFE1E9"/>
<path d="M29.7617 57.9295V56.5444L68.3728 37.1243V38.5151L29.7617 57.9295Z" fill="#9A9C9E"/>
<path d="M3.56005 53.076V44.754L29.7604 57.9297V56.5445L2.18109 42.6763L2.16992 53.7573L29.7604 67.6426V66.2574L3.56005 53.076Z" fill="#D2D4D6"/>
<path d="M2.18164 42.6762L29.7721 56.5445L68.372 37.1244L40.7927 23.2561L2.18164 42.6762Z" fill="#EEEFF6"/>
<path d="M29.7608 57.9297V64.8666L4.93945 52.3835V45.4465L29.7608 57.9297Z" fill="white"/>
<path d="M29.7617 57.9297V64.8667L65.6148 46.843V39.9004L29.7617 57.9297Z" fill="#E1E1D9"/>
<path d="M3.56055 44.7539V53.076L4.93951 52.3834V45.4465L3.56055 44.7539Z" fill="#9A9C9E"/>
<path d="M29.7609 66.2574L3.56055 53.076L4.93951 52.3834L29.7609 64.8666L65.6364 46.8713L65.614 45.4521L68.372 46.8429L29.7609 66.2574Z" fill="#9A9C9E"/>
<path d="M18.6738 34.3825L46.2532 48.2507L62.8007 39.9286L35.2214 26.0547L18.6738 34.3825Z" fill="#EEEFF6"/>
<path d="M46.252 49.6359L62.7995 41.3138V39.9287L46.252 48.2508V49.6359Z" fill="#9A9C9E"/>
<path d="M46.252 59.3431L62.7995 51.021V49.6416L46.252 57.958V59.3431Z" fill="#DFE1E9"/>
<path d="M26.5254 55.1754V53.8164L64.4065 34.769V36.1224L26.5254 55.1754Z" fill="#DFE1E9"/>
<path d="M26.5254 45.646V44.2871L64.4065 25.2341V26.5986L26.5254 45.646Z" fill="#9A9C9E"/>
<path d="M0.820881 40.8843V32.7196L26.5259 45.6462V44.2872L-0.532014 30.6812L-0.542969 41.5526L26.5259 55.1754V53.8165L0.820881 40.8843Z" fill="#D2D4D6"/>
<path d="M-0.53125 30.6811L26.5376 44.2872L64.4077 25.2342L37.3498 11.6282L-0.53125 30.6811Z" fill="#EEEFF6"/>
<path d="M26.5259 45.6461V52.4519L2.17383 40.2047V33.3989L26.5259 45.6461Z" fill="white"/>
<path d="M26.5254 45.6462V52.452L61.7007 34.7692V27.9578L26.5254 45.6462Z" fill="#E1E1D9"/>
<path d="M0.820312 32.7195V40.8842L2.17321 40.2048V33.3989L0.820312 32.7195Z" fill="#9A9C9E"/>
<path d="M26.5253 53.8164L0.820312 40.8843L2.17321 40.2048L26.5253 52.4519L61.7225 34.7969L61.7006 33.4045L64.4064 34.769L26.5253 53.8164Z" fill="#9A9C9E"/>
<path d="M15.6484 22.5441L42.7063 36.1502L58.9411 27.9854L31.8832 14.3738L15.6484 22.5441Z" fill="#EEEFF6"/>
<path d="M42.7051 37.5093L58.9398 29.3445V27.9856L42.7051 36.1503V37.5093Z" fill="#9A9C9E"/>
<path d="M42.7051 47.033L58.9398 38.8683V37.5149L42.7051 45.6741V47.033Z" fill="#DFE1E9"/>
<path d="M32.1172 43.5472V42.1882L69.9982 23.1409V24.4942L32.1172 43.5472Z" fill="#DFE1E9"/>
<path d="M32.1172 34.0178V32.6589L69.9982 13.606V14.9705L32.1172 34.0178Z" fill="#9A9C9E"/>
<path d="M6.41268 29.2561V21.0914L32.1177 34.018V32.659L5.05978 19.053L5.04883 29.9245L32.1177 43.5472V42.1883L6.41268 29.2561Z" fill="#D2D4D6"/>
<path d="M5.06055 19.0529L32.1294 32.659L69.9995 13.6061L42.9416 0L5.06055 19.0529Z" fill="#EEEFF6"/>
<path d="M32.1177 34.0179V40.8237L7.76562 28.5766V21.7708L32.1177 34.0179Z" fill="white"/>
<path d="M32.1172 34.018V40.8239L67.2925 23.141V16.3296L32.1172 34.018Z" fill="#E1E1D9"/>
<path d="M6.41211 21.0913V29.2561L7.765 28.5766V21.7708L6.41211 21.0913Z" fill="#9A9C9E"/>
<path d="M32.1171 42.1883L6.41211 29.2561L7.765 28.5766L32.1171 40.8237L67.3143 23.1687L67.2924 21.7764L69.9982 23.1409L32.1171 42.1883Z" fill="#9A9C9E"/>
<path d="M21.2402 10.9159L48.2981 24.522L64.5329 16.3572L37.475 2.74561L21.2402 10.9159Z" fill="#EEEFF6"/>
<path d="M48.2969 25.8811L64.5316 17.7164V16.3574L48.2969 24.5222V25.8811Z" fill="#9A9C9E"/>
<path d="M48.2969 35.4048L64.5316 27.2401V25.8867L48.2969 34.0459V35.4048Z" fill="#DFE1E9"/>
</svg>
