<svg viewBox="0 0 43 45" fill="none" xmlns="http://www.w3.org/2000/svg">
  <path d="M42.7963 4.11218H40.2597C40.2545 4.11218 40.2502 4.11696 40.2502 4.12285V42.3009C40.2502 42.3068 40.2545 42.3116 40.2597 42.3116H42.7963C42.8016 42.3116 42.8058 42.3068 42.8058 42.3009V4.12285C42.8058 4.11696 42.8016 4.11218 42.7963 4.11218Z" fill="#4CBECF"/>
  <path d="M8.60712 0.928955L0 3.96491V32.96L21.223 44.8582L23.0379 44.2178V43.0659L27.5745 41.4652V42.6174L29.3889 41.9774V12.5926L8.60712 0.928955ZM27.574 39.5621L23.0379 41.1625L23.0374 14.833L4.33825 4.33831L8.43368 2.89303L27.574 13.6359V39.5621Z" fill="currentColor"/>
</svg>
