<svg width="49" height="61" viewBox="0 0 49 61" fill="none" xmlns="http://www.w3.org/2000/svg">
<g opacity="0.9">
<path d="M7.07416 29.4865C7.17857 30.66 7.89453 31.6915 8.69999 32.5436C9.50545 33.3957 10.4377 34.1431 11.1537 35.0699C11.8696 36.0042 12.2873 37.3048 12.1679 38.3661C11.9591 37.1254 11.2208 35.9295 10.214 35.182C9.34137 34.5243 8.2376 34.1506 7.55147 33.2985C7.6335 34.2104 8.11827 35.0101 8.78948 35.623C9.15492 35.9594 9.58003 36.2359 9.94546 36.5723C10.3109 36.9086 10.6391 37.3272 10.7136 37.828C10.2512 37.245 9.43833 36.9834 8.69999 36.8638C7.96911 36.7442 7.22332 36.7592 6.49244 36.6171C7.29044 37.6262 8.34201 38.4185 9.5502 38.8669C8.91627 38.9716 8.20777 39.0389 7.56638 38.9865C6.925 38.9342 6.27616 38.7174 5.82868 38.2466C5.38121 37.7757 5.1873 37.1104 5.07543 36.4676C4.85915 35.2045 4.88898 33.8964 5.10526 32.6333C5.21713 31.9905 5.37375 31.3477 5.68698 30.7721C6.00767 30.1891 6.47007 29.7332 7.07416 29.4865Z" fill="#C1C1C1"/>
<path d="M11.1462 23.1855C11.1761 23.7236 10.9747 24.202 11.2357 24.6729C11.8771 25.8463 11.728 27.9541 12.5334 29.2696C12.8094 29.7181 13.3165 30.0843 13.585 30.5328C13.8535 30.9813 13.9728 31.4223 14.1518 31.8857C14.122 30.3385 13.145 29.6284 12.8466 28.0065C12.69 27.1394 12.6005 26.2574 12.429 25.3904C12.2649 24.5309 11.8846 23.6713 11.1462 23.1855Z" fill="#C1C1C1"/>
<path d="M17.657 16.9295C17.7017 18.0806 17.4631 19.2242 17.1797 20.3453C16.8963 21.459 16.5607 22.5727 16.3966 23.7088C16.24 24.8524 16.2698 26.0483 16.6949 27.1171C16.2176 25.8091 16.5383 24.2918 17.0529 22.9987C17.5675 21.7057 18.2835 20.4873 18.6489 19.1419C19.0516 17.677 19.0143 16.0924 18.5445 14.6498C18.1194 15.4645 17.6197 16.0176 17.657 16.9295Z" fill="#C1C1C1"/>
<path d="M29.5226 4.58173C29.4257 7.15293 28.8812 9.78392 27.5314 11.9366C26.6811 13.2969 25.4431 14.4853 25.1224 16.0624C25.1075 15.2253 25.4357 14.3807 25.8384 13.6482C26.2411 12.9157 26.7334 12.2281 27.151 11.503C27.9415 10.1203 28.4487 8.57307 28.6202 6.98849C28.7097 6.13641 29.3362 5.44876 29.5226 4.58173Z" fill="#C1C1C1"/>
<path d="M37.9351 1.6144C37.1371 1.876 36.533 2.5487 36.1228 3.28119C35.7126 4.01369 35.4591 4.8284 35.1234 5.59826C34.7953 6.34571 34.3851 7.05578 33.8929 7.70605C35.2279 6.4055 36.0109 4.64154 37.2788 3.27372C37.6219 2.90747 37.9948 2.57112 38.3229 2.1974C38.651 1.82368 38.9419 1.39764 39.0687 0.911804C38.651 1.16593 38.3975 1.45744 37.9351 1.6144Z" fill="#C1C1C1"/>
<path d="M48.0556 7.39962C47.9064 6.90631 47.5335 6.48774 47.0935 6.21866C46.6535 5.94958 46.1389 5.80009 45.6317 5.72535C44.6249 5.56839 43.6479 5.78515 42.7232 6.21866C41.2838 6.89136 40.3142 7.99757 39.2403 9.07389C38.1664 10.1427 36.7866 10.9649 35.295 11.2265C36.3988 11.3013 37.5101 10.9051 38.487 10.3894C39.464 9.86618 40.3292 9.17106 41.1794 8.46099C41.8506 7.90788 42.5143 7.33982 43.2676 6.90631C44.0208 6.47279 44.871 6.16634 45.7362 6.17381C46.6013 6.18129 47.5335 6.7045 48.0556 7.39962Z" fill="#C1C1C1"/>
<path d="M41.6941 9.29061C40.9035 9.84372 40.3143 10.636 39.7625 11.4208C39.2106 12.2131 38.6811 13.0278 37.9726 13.693C36.4288 15.1356 34.169 15.7261 32.8788 17.3929C34.527 15.9653 36.8837 15.5841 38.5021 14.1266C39.1957 13.5062 39.7103 12.7139 40.2249 11.9366C40.732 11.1592 41.2541 10.3669 41.9402 9.74655C42.6263 9.12617 43.4318 8.75993 44.3566 8.69266C44.2372 8.61044 43.9986 8.61044 43.8569 8.60296C43.6779 8.59549 43.4914 8.60296 43.3124 8.62539C42.9395 8.67771 42.5816 8.78982 42.246 8.95426C42.052 9.0589 41.8656 9.16354 41.6941 9.29061Z" fill="#C1C1C1"/>
<path d="M33.5349 19.5678C32.6325 20.5245 31.9613 21.7429 30.8874 22.5053C30.2907 22.9313 29.6046 23.1929 28.9558 23.5218C28.3069 23.8507 27.6655 24.2692 27.3001 24.9045C28.0608 24.1945 29.0826 23.9104 30.0745 23.6189C31.0664 23.3274 32.103 23.0359 32.8936 22.3707C33.878 21.5411 34.3628 20.248 35.3099 19.3884C35.7574 18.9773 36.0184 18.4317 36.451 18.0057C36.8836 17.5796 37.3385 17.176 37.7188 16.6976C38.0992 16.2193 38.405 15.6736 38.487 15.0757C38.1216 15.4046 37.6666 15.6512 37.1893 15.8007C36.7493 16.593 35.9588 17.1835 35.116 17.5572C34.1167 17.9907 33.0278 18.1701 31.9613 18.4093C30.8948 18.6559 29.8209 18.9848 28.9707 19.6725C30.2311 19.1193 31.5511 18.7232 32.9085 18.499C33.8482 18.3495 34.8326 18.2598 35.6306 17.7441C35.1235 18.2972 34.3479 18.5662 33.6244 18.768C32.901 18.9699 32.1478 19.1193 31.4989 19.5005C31.9464 19.2464 32.461 19.1418 32.9607 19.0446C33.4604 18.9474 33.975 18.8876 34.4746 18.7755C34.1316 18.9923 33.8258 19.2688 33.5349 19.5678Z" fill="#C1C1C1"/>
<path d="M32.1479 22.767C31.3201 23.066 30.3804 23.5145 29.8583 24.232C29.6122 24.5683 29.4108 25.0542 29.2169 25.5475C28.9111 26.3398 28.3443 26.9975 27.5985 27.4012C27.5911 27.4012 27.5911 27.4086 27.5836 27.4086C26.8602 27.7973 26.0697 28.0365 25.3015 28.3355C24.5333 28.6344 23.7726 29.0007 23.1984 29.5837C23.9591 29.0978 24.7347 28.6868 25.5924 28.4027C26.2561 28.1785 26.9422 28.029 27.5836 27.7599C27.8969 27.6254 28.2101 27.4684 28.486 27.2666C27.5911 28.8661 26.6216 30.0546 25.0106 30.9739C26.5097 30.4582 27.8596 29.5687 28.8664 28.3429C29.6271 27.4086 30.1865 26.3248 30.895 25.3532C31.5736 24.4338 32.3865 23.6116 33.3039 22.9315C32.9161 22.8717 32.5133 22.6325 32.1479 22.767Z" fill="#C1C1C1"/>
<path d="M23.6606 33.5002C24.8464 32.992 26.0844 32.5211 27.039 31.654C27.2926 31.4223 27.5238 31.1682 27.7923 30.9589C28.0608 30.7422 28.374 30.5702 28.7096 30.5403C28.5903 31.6839 27.755 32.6407 26.7631 33.2237C25.7787 33.7992 24.645 34.0683 23.5338 34.3448C22.7284 34.5466 21.9154 34.7709 21.1622 35.1371C20.9608 35.2343 20.7669 35.3688 20.5656 35.4735C20.655 35.2941 20.8788 35.1296 21.0279 35.0026C21.2144 34.8456 21.4083 34.6961 21.6097 34.5616C22.0124 34.285 22.4524 34.0533 22.8924 33.844C23.1535 33.717 23.407 33.6123 23.6606 33.5002Z" fill="#C1C1C1"/>
<path d="M24.9882 35.4659C23.7875 35.3015 22.542 35.3613 21.4084 35.7799C20.2673 36.191 19.2456 36.9758 18.6639 38.0446C19.2381 37.2598 20.1853 36.7814 21.1325 36.5572C22.0796 36.333 23.0641 36.3629 24.0411 36.4301C24.4736 36.46 24.9136 36.5049 25.3313 36.3853C25.7489 36.2732 26.1442 35.9592 26.2262 35.5332C25.7862 35.5706 25.4208 35.5257 24.9882 35.4659Z" fill="#C1C1C1"/>
<path d="M22.3406 43.4189C23.0416 44.0916 23.5115 45.1455 23.9888 45.9976C24.2423 44.981 23.8172 44.0766 23.3175 43.3965C22.8179 42.7163 22.0944 42.2155 21.2815 41.9838C20.9981 41.9016 20.7073 41.8567 20.4089 41.8642C20.3418 41.8642 20.0286 41.8567 19.9838 41.9165C19.9316 42.0062 20.133 42.0585 20.1852 42.0735C20.6998 42.2454 21.1846 42.507 21.6246 42.8209C21.8856 43.0003 22.1168 43.2021 22.3406 43.4189Z" fill="#C1C1C1"/>
<path d="M40.7915 5.56097C36.4659 7.00354 28.8663 15.5094 28.8663 15.5094C24.7868 20.3229 21.1026 25.6597 18.455 31.3926C17.2841 33.9339 16.1057 36.4826 15.1884 39.1361C14.2785 41.782 13.6745 44.57 13.585 47.3729C14.644 46.3937 16.0685 45.8331 17.5078 45.8331C18.9472 45.8331 20.3791 46.3862 21.4382 47.3579C21.371 46.3339 21.3039 45.295 20.9832 44.3233C20.6625 43.3516 20.0435 42.4323 19.1337 41.9614C20.1703 41.356 21.5127 41.6475 22.5643 42.2155C23.6233 42.791 24.5332 43.6132 25.6221 44.1215C26.7109 44.6298 28.113 44.7568 29.0229 43.9795C27.7625 43.3292 26.8601 42.1632 25.9129 41.0944C24.9732 40.0255 23.862 38.9866 22.4599 38.7324C23.1684 38.2915 23.9739 37.9626 24.7942 37.843C23.9739 37.6262 23.1237 37.4095 22.2884 37.5515C21.1697 37.7383 20.2598 38.5306 19.4245 39.3005C18.7235 39.9433 17.9777 40.6085 17.1051 40.9374C18.6265 34.5617 21.2517 28.9185 24.2051 24.12C24.7942 23.1558 25.6743 22.4008 26.7184 21.9748C26.7258 21.9748 26.7333 21.9673 26.7408 21.9673C28.1801 21.3918 29.7911 21.19 31.1037 20.3827C29.2168 21.1152 27.136 21.3768 25.3461 22.3336C32.4237 11.6227 40.7915 5.56097 40.7915 5.56097Z" fill="#C1C1C1"/>
<path d="M19.6781 17.8339C19.872 17.1238 20.0361 16.4063 20.23 15.7037C20.4687 14.8516 20.8266 13.8949 21.4009 13.0727C21.1697 13.566 21.0131 14.1041 20.9161 14.6423C20.7371 15.599 20.7073 16.5782 20.588 17.5499C20.4985 18.2973 20.3493 19.0298 20.148 19.7548C21.0877 17.6694 21.3711 15.2477 22.6613 13.3418C23.4444 12.1832 24.5407 11.2938 25.6295 10.4193C26.7109 9.54475 27.8147 8.64782 28.5903 7.48929C29.2616 6.48772 29.6643 5.23201 29.4853 4.05106C29.4107 4.96293 29.0677 5.85987 28.5307 6.59983C28.1876 5.85239 27.2554 5.61321 26.5991 6.09905L2.66656 23.8433L1.16751 24.957C0.0637355 25.7792 -0.309161 27.2591 0.272558 28.5074C3.42727 35.2343 7.08166 43.0301 10.4899 50.2878C10.6167 50.5569 11.0194 50.512 11.0791 50.2205C11.2581 49.3311 11.4445 48.4416 11.549 47.5372C11.7652 45.6537 11.5863 43.5982 10.4079 42.1108C9.77397 41.3036 8.89393 40.728 8.12577 40.0479C7.49184 39.4798 6.90266 38.7772 6.68638 37.9625C6.85792 38.1867 7.09657 38.3586 7.35014 38.4782C7.7305 38.6501 8.1556 38.7174 8.57324 38.7697C8.91631 38.8071 9.25192 38.8445 9.58752 38.9192C9.44582 38.7623 9.32649 38.5978 9.20717 38.4259C8.93868 38.0447 8.71494 37.6336 8.45392 37.2449C8.12577 36.7591 7.75287 36.3106 7.32777 35.8996C7.65592 36.0117 7.99898 36.0939 8.33459 36.1911C8.90139 36.3555 9.47565 36.5498 9.9455 36.9161C10.296 37.1852 10.5645 37.5439 10.7733 37.9326C10.6093 36.9534 10.117 36.0266 9.52786 35.2119C8.96851 34.442 8.31221 33.732 7.84982 32.8948C7.46947 32.2072 7.22336 31.4448 7.1264 30.66C7.38743 31.5494 7.89457 32.3642 8.54341 33.0294C9.26683 33.7619 10.1618 34.3225 10.8479 35.0923C11.5863 35.922 12.1456 37.3421 12.1829 38.4633C12.332 37.6934 12.1829 36.8563 11.9069 36.1088C11.549 35.1596 10.9971 34.2926 10.5571 33.3807C10.117 32.4613 9.78889 31.4448 9.93805 30.4432C10.1245 29.2099 10.9971 28.186 11.3998 27.005C11.6907 26.1305 11.7056 25.1738 11.4595 24.2843C11.7802 24.7477 11.9815 25.2934 12.1158 25.8465C12.3097 26.6238 12.3917 27.4385 12.6304 28.2084C12.8094 28.7914 13.0928 29.3221 13.4657 29.7556C13.0555 28.4775 13.048 27.0424 13.3538 25.7269C13.8013 23.8134 14.8305 22.0868 15.9715 20.4873C16.6502 19.5381 17.3811 18.6112 17.9106 17.5648C18.194 16.9967 18.4177 16.3913 18.5221 15.7635C18.552 17.2733 18.3282 18.7906 17.8584 20.2257C17.5899 21.0479 17.2394 21.8402 16.9858 22.6698C16.7844 23.3276 16.6427 24.0227 16.6651 24.7029C16.7471 23.9779 17.0156 23.2528 17.3512 22.5951C17.8957 21.5412 18.6191 20.5845 19.1113 19.5007C19.3425 18.9625 19.5215 18.4019 19.6781 17.8339Z" fill="#33353D"/>
<path d="M47.8692 9.16361C47.817 9.2234 47.7573 9.2832 47.7051 9.34299C48.2496 8.92442 48.6672 8.32647 48.8611 7.66125C49.1669 6.61483 48.9506 5.44882 48.3838 4.52199C47.817 3.59516 46.9146 2.89257 45.9078 2.46653C44.9084 2.04049 43.8046 1.88352 42.7158 1.89847C40.9184 1.92089 39.136 2.39926 37.5698 3.27376C37.8383 2.98226 38.1217 2.70571 38.3827 2.39926C38.9794 1.70414 39.4194 0.874476 39.6729 -3.05412e-05C39.2478 0.44096 38.7556 0.82963 38.2336 1.1585C37.2118 1.81625 36.0857 2.30209 34.9968 2.84025C33.1398 3.74465 31.3126 4.85834 30.0895 6.52514C29.1796 7.78084 28.665 9.26825 28.0162 10.6809C27.5762 11.6451 27.0467 12.6093 26.3307 13.3792C27.0989 12.8036 27.7029 11.9815 28.1803 11.1369C28.8888 9.88115 29.3959 8.51333 30.2312 7.33237C31.4543 5.59831 33.2889 4.41735 35.1385 3.38588C36.302 2.73561 37.5027 2.13018 38.6363 1.42011C38.4871 1.65929 38.3081 1.87605 38.1142 2.07038C37.6593 2.5338 37.1298 2.91499 36.7196 3.42325C36.2796 3.96889 36.0036 4.63411 35.6755 5.25449C37.1671 4.00626 38.9495 3.10933 40.8364 2.66086C41.9551 2.39178 43.126 2.28714 44.267 2.46653C45.4081 2.64591 46.5119 3.12428 47.3472 3.92404C48.1824 4.7238 48.712 5.85991 48.6821 7.01097C48.6747 7.78831 48.3764 8.57313 47.8692 9.16361Z" fill="#33353D"/>
<path d="M47.9958 7.18281C47.8392 6.91373 47.6229 6.67455 47.3694 6.49516C46.8025 6.10649 46.0791 5.99438 45.393 6.03922C43.6777 6.15134 42.1637 7.16039 40.8437 8.25913C39.8443 9.08131 38.8897 9.98572 37.8157 10.6883C38.4198 10.6584 39.0165 10.4043 39.5311 10.0605C40.165 9.63442 40.6945 9.07384 41.2613 8.55063C42.0891 7.78824 43.0065 7.10059 44.0431 6.67455C44.8187 6.36062 45.6839 6.20366 46.4968 6.398C47.2277 6.56991 47.8989 7.05574 48.2046 7.72844C48.1599 7.54158 48.0928 7.35472 47.9958 7.18281Z" fill="#33353D"/>
<path d="M22.706 57.366C27.7476 54.7873 42.4397 47.2904 47.2426 44.8314L47.1829 45.7731C47.1009 47.2008 46.191 48.449 44.8635 48.9797C37.1147 52.0516 21.0578 58.4273 21.0578 58.4273C20.9385 58.4722 20.8639 58.3077 20.9757 58.2479C20.9832 58.2479 21.6171 57.9191 22.706 57.366Z" fill="#33353D"/>
<path d="M22.1243 57.0672C21.5501 57.4708 21.2294 57.71 21.2368 57.7324L43.0588 45.9079C44.7442 44.996 45.6914 43.1424 45.4453 41.2364L45.4453 41.214C40.3366 44.6597 25.8682 54.4213 22.1243 57.0672Z" fill="#33353D"/>
<path d="M47.8543 48.9275L18.9473 59.4964C18.8131 59.5487 18.7161 59.3693 18.8354 59.2796L41.7835 42.2604C43.2751 41.1541 43.7822 39.1435 42.9917 37.4618C40.5753 32.3119 37.883 26.5716 35.2354 20.9209C35.0341 20.4949 35.1012 19.9941 35.3995 19.6353C35.8619 19.0747 36.3914 18.5665 36.8687 18.0134C37.704 17.0342 38.3678 15.913 38.8152 14.7022C38.4871 15.0236 38.0993 15.2852 37.6816 15.472C37.1298 15.7262 36.5182 15.8607 35.9141 15.9504C37.3684 15.3599 38.6064 14.5153 39.5163 13.2297C40.0011 12.5496 40.3143 11.8395 40.7394 11.1743C40.7394 11.1743 40.7394 11.1743 40.7394 11.1668C40.8886 10.9276 41.0601 10.6884 41.254 10.4567C41.3733 10.3147 41.5001 10.1802 41.6269 10.0531L41.6343 10.0456C42.5293 9.17859 43.5958 8.75255 44.7145 8.66285C44.5504 8.64791 44.3863 8.64791 44.2297 8.65538C43.2602 8.69275 42.2981 9.05152 41.5523 9.68685C40.2621 10.8005 39.7177 12.5794 38.5095 13.7754C37.622 14.6573 36.4362 15.1581 35.3249 15.7187C34.5941 16.0924 33.7364 16.5708 33.0652 17.1613C32.8489 17.3481 32.655 17.5499 32.4909 17.7667C33.8856 16.4811 35.586 16.5857 37.0179 16.07C37.4281 15.9205 37.8159 15.7262 38.1664 15.4272C37.8681 16.2718 37.4355 16.7278 36.8016 17.378C36.6972 17.4827 36.5928 17.5948 36.4809 17.6994C35.7277 18.4244 34.8998 19.0822 34.2137 19.8745C33.5798 20.607 33.0577 21.4441 32.3119 22.057C31.3722 22.8344 30.164 23.1931 29.0528 23.7014C28.4189 24.0004 27.785 24.3816 27.3002 24.8898C27.2554 24.9347 27.2107 24.9795 27.1734 25.0318C27.8819 24.5161 28.7396 24.1797 29.5823 23.9107C29.8508 23.821 30.1268 23.7388 30.3952 23.664C30.8427 23.5369 31.2902 23.4248 31.7451 23.3202C31.8943 23.2903 32.0434 23.2529 32.1926 23.2155C31.3946 23.7612 30.7159 24.4712 30.2162 25.2934C29.6942 26.1455 29.366 27.1022 28.8216 27.9319C27.9192 29.3147 26.5022 30.2639 24.9957 30.974C25.734 30.7871 26.45 30.533 27.1063 30.1593C27.7029 29.8229 28.2474 29.3819 28.6725 28.8438C28.6202 28.9335 28.5755 29.0232 28.5233 29.1054C27.5463 30.7199 26.1964 31.2804 24.496 32.0503C23.6309 32.3941 22.7061 32.7006 21.9901 33.2761C22.5793 33.0295 23.2207 32.8949 23.8546 32.7978C24.5408 32.6856 25.2343 32.6109 25.9056 32.4539C26.0845 32.4091 26.2635 32.3642 26.4425 32.3044C27.0541 32.1101 27.6582 31.8037 28.1206 31.3627C27.6433 32.1624 26.8229 32.7604 25.9652 33.164C24.936 33.6424 23.8173 33.8965 22.7434 34.2852C21.9678 34.5617 21.1921 34.9354 20.5731 35.4661C20.5209 35.511 20.4762 35.5558 20.424 35.6007C21.2369 35.2195 22.1691 35.0849 23.0566 35.2419C23.2505 35.2793 23.4444 35.3241 23.6383 35.3764C24.0038 35.4811 24.3618 35.6007 24.7272 35.7053C25.0554 35.795 25.391 35.8623 25.734 35.8772C25.2045 36.0267 24.6228 35.9893 24.0634 35.9669C23.34 35.937 22.6017 35.9295 21.8932 36.094C21.4308 36.1986 20.9759 36.3855 20.5955 36.662C20.6403 36.6545 20.6925 36.6471 20.7447 36.6396C21.0132 36.6097 21.2816 36.6247 21.5501 36.677C22.0796 36.7816 22.5793 37.0058 23.0715 37.2376C23.3624 37.3721 23.6533 37.5066 23.9516 37.6113C23.9441 37.6113 23.9367 37.6113 23.9292 37.6113C23.4519 37.6636 22.9895 37.8056 22.5644 38.0298C22.0274 38.3213 21.565 38.7399 21.0654 39.0912C21.565 39.0837 22.0647 39.2183 22.5122 39.4425C23.258 39.8312 23.8472 40.4815 24.2946 41.1915C24.6974 41.8418 25.0031 42.5593 25.5103 43.1349C25.8981 43.5759 26.4052 43.9197 26.9571 44.1215C25.5401 43.8748 24.3916 43.105 23.3773 42.3276C22.7956 41.8866 22.2139 41.3933 21.5054 41.1915C20.7894 40.9897 20.0063 41.1093 19.3127 41.3933C18.8727 41.5727 18.4551 41.8119 18.0524 42.0735C18.4775 42.2454 18.8727 42.5145 19.1934 42.8508C19.6931 43.3666 20.0436 44.0243 20.2674 44.712C20.4016 45.1156 20.4911 45.5416 20.5582 45.9602C20.1555 45.437 19.6633 45.0035 19.0666 44.7194C17.8883 44.1589 16.4265 44.3158 15.3302 45.0259C14.8007 45.3697 14.3532 45.8331 14.0101 46.3638C14.1593 45.6014 14.3159 44.839 14.4875 44.0766C15.6733 38.8894 17.5079 33.8516 19.9541 29.1129C20.5582 27.9244 21.2145 26.7659 21.9006 25.6223C22.5868 24.4787 23.3027 23.3501 24.056 22.2513C25.5625 20.0539 27.2107 17.9461 28.9708 15.9429C30.7383 13.9398 32.6177 12.0413 34.6239 10.2699C35.6233 9.3804 36.6524 8.52831 37.704 7.7136C38.2335 7.30251 38.7705 6.90637 39.3149 6.5177C39.7997 6.17387 40.2845 5.845 40.7841 5.53107L40.7916 5.5236C40.7916 5.5236 40.7916 5.5236 40.7991 5.5236C40.8587 5.48623 40.9184 5.44885 40.9781 5.41148L40.9855 5.41148C41.0526 5.36664 41.0974 5.29189 41.0825 5.21715C41.0601 5.06019 40.896 4.99292 40.7767 5.06018C40.1875 5.40401 39.6282 5.77773 39.0688 6.15145C38.5095 6.53265 37.965 6.92132 37.4206 7.32493C36.3392 8.13217 35.2876 8.96931 34.2659 9.85129C32.215 11.6003 30.2834 13.4839 28.4562 15.4795C26.6364 17.4677 24.936 19.5755 23.3624 21.773C22.5793 22.8717 21.8335 24.0004 21.1176 25.1439C20.4016 26.295 19.7229 27.461 19.0815 28.6494C16.5086 33.4107 14.5471 38.5157 13.242 43.7777C12.6006 46.4161 12.0935 49.0845 11.7728 51.7828C11.467 54.3166 11.2955 56.8654 11.2507 59.4216C11.2433 59.7804 11.2433 60.1691 11.2507 60.5503C11.2507 60.767 11.5043 60.8866 11.6684 60.7446C11.9518 60.5054 12.2575 60.2363 12.526 60.0046C12.7125 59.8402 12.8243 59.601 12.8243 59.3544C12.8243 59.3544 12.8243 59.3544 12.8243 59.3469C12.8243 58.0389 12.8616 56.7383 12.9287 55.4378C13.4284 56.5066 13.9207 57.5605 14.4054 58.577C15.2034 60.2737 17.1052 61.1482 18.9026 60.6474C24.757 59.018 37.4654 55.4751 44.8487 53.4197C46.8251 52.9039 48.1078 50.983 47.8543 48.9275ZM20.0138 42.0959C20.0958 42.0885 20.1704 42.0885 20.245 42.0885C20.2674 42.0885 20.2897 42.0885 20.3121 42.0885C22.0573 42.1184 23.5712 43.4114 23.8472 45.3323C23.7428 45.2576 23.6383 45.1903 23.5265 45.1305C22.8254 44.7194 22.0349 44.4055 21.4532 43.8375C20.9087 43.3143 20.5731 42.5967 20.0138 42.0959Z" fill="#33353D"/>
</g>
</svg>
