<?xml version="1.0" encoding="UTF-8"?>
<svg fill="none" viewBox="0 0 35 40" xmlns="http://www.w3.org/2000/svg">
<path d="m32.873 9.583 0.9401-2.3048s-1.1827-1.2737-2.6384-2.7293c-1.4556-1.4556-4.5185-0.60652-4.5185-0.60652l-3.4875-3.9424h-12.282l-3.4874 3.9727s-3.0629-0.84913-4.5186 0.60652-2.6384 2.7293-2.6384 2.7293l0.9401 2.3048-1.1827 3.3966s3.5178 13.283 3.912 14.92c0.81881 3.1842 1.3647 4.4275 3.6694 6.0652 2.3048 1.6376 6.4594 4.4275 7.1569 4.8521 0.6672 0.4246 1.5467 1.1524 2.3048 1.1524 0.7582 0 1.6073-0.7278 2.3048-1.1524 0.6672-0.4246 4.8522-3.2449 7.1569-4.8521 2.3048-1.6073 2.8507-2.8507 3.6695-6.0652 0.4245-1.6377 3.912-14.92 3.912-14.92l-1.213-3.4269z" fill="url(#b)"/>
<path d="m25.686 6.4898s4.4882 5.4283 4.4882 6.611c0 1.1828-0.5762 1.4557-1.1524 2.0622s-3.0629 3.2449-3.3661 3.5785c-0.3336 0.3336-0.9705 0.8491-0.6066 1.7892 0.3943 0.9098 0.9705 2.0925 0.3336 3.3055-0.6368 1.1828-1.7286 2.0016-2.4261 1.8499-0.6975-0.1213-2.3654-1.0007-2.9719-1.395-0.6065-0.3942-2.5171-1.9712-2.5171-2.5777s2.0016-1.6982 2.3655-1.9408c0.3639-0.2427 2.0318-1.2131 2.0621-1.577 0.0304-0.3639 0.0304-0.4852-0.4852-1.4253-0.4852-0.9401-1.395-2.1835-1.2434-3.0023 0.1517-0.8188 1.577-1.2434 2.6081-1.6376s3.0023-1.1221 3.2449-1.2434 0.1819-0.2122-0.5762-0.3032c-0.7582-0.0607-2.8507-0.3639-3.8211-0.091s-2.5777 0.6672-2.7293 0.8795c-0.1213 0.2122-0.2427 0.2122-0.1213 0.9704 0.1213 0.7278 0.8491 4.3063 0.9097 4.9431 0.0607 0.6369 0.2123 1.0614-0.4852 1.2131-0.6672 0.1516-1.8195 0.4245-2.2138 0.4245-0.3942 0-1.5466-0.2729-2.2138-0.4245-0.6672-0.1517-0.5459-0.5762-0.4852-1.2131 0.0607-0.6368 0.7582-4.185 0.9098-4.9431 0.1213-0.7278 0.0303-0.7582-0.1213-0.9704-0.1213-0.2123-1.7589-0.6066-2.7294-0.8795-0.9704-0.2729-3.0629 0-3.821 0.091-0.75815 0.0606-0.8188 0.1819-0.57619 0.3032s2.2138 0.8492 3.2449 1.2434c1.031 0.3942 2.4564 0.8188 2.608 1.6376s-0.7278 2.0622-1.2434 3.0023c-0.4852 0.9401-0.5155 1.0311-0.4852 1.4253 0.0303 0.3639 1.6983 1.3343 2.0622 1.577 0.3639 0.2426 2.3654 1.3343 2.3654 1.9408s-1.9105 2.1835-2.5171 2.5777c-0.6065 0.3943-2.2441 1.2434-2.9719 1.395-0.6975 0.1213-1.7892-0.6671-2.4261-1.8499-0.63684-1.1827-0.06065-2.3654 0.33359-3.3055 0.39424-0.9098-0.27293-1.4253-0.60652-1.7892-0.24261-0.3639-2.699-3.0023-3.2752-3.5785-0.57619-0.6065-1.1221-0.9098-1.1221-2.0622s4.4882-6.611 4.4882-6.611 3.7907 0.72782 4.3063 0.72782c0.5155 0 1.6072-0.42456 2.6383-0.75815s1.6983-0.33359 1.6983-0.33359 0.6671 0 1.6982 0.33359 2.1228 0.75815 2.6384 0.75815c0.5155 0 4.3063-0.72782 4.3063-0.72782zm-3.3662 20.773c0.2729 0.1819 0.1213 0.5155-0.1516 0.6672-0.2426 0.1819-3.6695 2.8203-3.9727 3.1235-0.3336 0.3033-0.8188 0.7582-1.1524 0.7582s-0.8188-0.4852-1.1524-0.7582c-0.3336-0.3032-3.7301-2.9416-3.9727-3.1235-0.2426-0.182-0.4246-0.5156-0.1517-0.6672 0.273-0.182 1.1524-0.6065 2.3351-1.2434 1.2131-0.6368 2.6991-1.1524 2.9417-1.1524s1.7286 0.5156 2.9416 1.1524c1.1827 0.6369 2.0318 1.0918 2.3351 1.2434z" fill="#fff"/>
<path d="m26.656 3.9727-3.4874-3.9727h-12.282l-3.4875 3.9727s-3.0629-0.84913-4.5186 0.60652c0 0 4.094-0.36392 5.489 1.9105 0 0 3.7907 0.72782 4.3063 0.72782 0.5155 0 1.6072-0.42456 2.6383-0.75815s1.6983-0.33359 1.6983-0.33359 0.6672 0 1.6982 0.33359c1.0311 0.33359 2.1229 0.75815 2.6384 0.75815s4.3063-0.72782 4.3063-0.72782c1.395-2.2745 5.489-1.9105 5.489-1.9105-1.4253-1.4556-4.4883-0.60652-4.4883-0.60652z" fill="url(#a)"/>
<defs>
<linearGradient id="b" x1="-.0002318" x2="34.06" y1="19.992" y2="19.992" gradientUnits="userSpaceOnUse">
<stop stop-color="#f50" offset="0"/>
<stop stop-color="#f50" offset=".4099"/>
<stop stop-color="#FF2000" offset=".582"/>
<stop stop-color="#FF2000" offset="1"/>
</linearGradient>
<linearGradient id="a" x1="3.5005" x2="31.165" y1="3.6021" y2="3.6021" gradientUnits="userSpaceOnUse">
<stop stop-color="#FF452A" offset="0"/>
<stop stop-color="#FF2000" offset="1"/>
</linearGradient>
</defs>
</svg>
