<?xml version="1.0" encoding="UTF-8"?>
<svg fill="none" viewBox="0 0 40 40" xmlns="http://www.w3.org/2000/svg">
<g opacity=".1">
<path d="m40 19.725c-0.0892-3.0093-0.87-5.8429-2.164-8.369-0.0223-0.0439-0.0446-0.1098-0.0892-0.1538-3.3464-6.3042-10.039-10.61-17.736-10.61-7.0943 0.021966-13.319 3.6464-16.888 9.1378-1.874 2.9215-3.0117 6.3482-3.1233 10.038v0.3514 0.1757c0 10.588 8.4997 19.242 19.141 19.682 0.29 0.022 0.58 0.022 0.8701 0.022 11.043 0 20.011-8.8084 20.011-19.704-0.0223-0.1757-0.0223-0.3734-0.0223-0.5711zm-29.225 0.0659v-0.0659-0.0219c0-0.1318 0.0223-0.2417 0.0223-0.3735v-0.0659-0.0439c0.0224-0.1538 0.0447-0.3075 0.067-0.4613v-0.0219c0-0.022 0.0223-0.0659 0.0223-0.0879 0.0223-0.1318 0.0446-0.2636 0.0892-0.3954 0.2008-0.8786 0.5354-1.7133 0.9816-2.4602v-0.0219c0.0669-0.1099 0.1339-0.2197 0.2008-0.3076 0.3346-0.5052 0.7139-0.9884 1.1378-1.4278 0.0223-0.0219 0.0446-0.0439 0.0446-0.0659 0.0669-0.0659 0.1338-0.1318 0.2231-0.1977 0.0223-0.0219 0.0446-0.0439 0.0892-0.0658 0.0669-0.0659 0.1338-0.1318 0.2008-0.1977 0.0223-0.022 0.0669-0.044 0.0892-0.0659 0.0669-0.0659 0.1339-0.1318 0.2231-0.1758 0.0223-0.0219 0.0669-0.0439 0.0892-0.0659 0.2454-0.1977 0.4908-0.3734 0.7585-0.5271 0.0447-0.022 0.0893-0.0659 0.1339-0.0879 0.0669-0.0439 0.1339-0.0879 0.2008-0.1098 0.0446-0.022 0.1115-0.0659 0.1561-0.0879 0.067-0.0439 0.1339-0.0659 0.2008-0.1098 0.0669-0.022 0.1116-0.0659 0.1785-0.0879s0.1338-0.0659 0.1785-0.0879c0.0669-0.0219 0.1338-0.0659 0.2007-0.0878 0.067-0.022 0.1116-0.044 0.1785-0.0879 0.0669-0.022 0.1562-0.0659 0.2231-0.0879 0.0446-0.0219 0.1116-0.0439 0.1562-0.0659 0.1338-0.0439 0.2677-0.0878 0.3792-0.1317 0.0223 0 0.067-0.022 0.0893-0.022 0.1115-0.022 0.2007-0.0659 0.3123-0.0879 0.0446-0.0219 0.1115-0.0219 0.1561-0.0439 0.0893-0.022 0.1785-0.0439 0.2678-0.0659 0.0669-0.022 0.1115-0.022 0.1784-0.0439 0.0893-0.022 0.1785-0.022 0.2677-0.044 0.067 0 0.1116-0.0219 0.1785-0.0219 0.0892-0.022 0.1785-0.022 0.2677-0.044 0.0669 0 0.1116-0.0219 0.1785-0.0219 0.0892 0 0.2008-0.022 0.29-0.022h0.1339c0.1561 0 0.29-0.022 0.4461-0.022 0.1562 0 0.3347 0 0.4908 0.022h0.067 0.0892c0.0446 0 0.0892 0 0.1562 0.022 0.0669 0 0.1115 0 0.1784 0.0219 0.0447 0 0.1116 0.022 0.1562 0.022h0.0223c0.1115 0.022 0.2008 0.022 0.3123 0.0439 0.0446 0 0.0893 0.022 0.1339 0.022h0.0446c0.0892 0.022 0.2008 0.0439 0.29 0.0439 0.0446 0 0.0893 0.022 0.1339 0.022h0.0223c0.0892 0.022 0.2008 0.0439 0.29 0.0659 0.0446 0.022 0.1115 0.022 0.1562 0.0439 0.0892 0.022 0.2007 0.0659 0.29 0.0879 0.0446 0.022 0.0892 0.022 0.1338 0.0439 0.1116 0.0439 0.2008 0.0659 0.29 0.1098 0 0 0.0224 0 0.0224 0.022 0.0223 0.022 0.0669 0.022 0.0892 0.0439 0.0892 0.022 0.1562 0.0659 0.2454 0.1099 0.0223 0 0.0446 0.0219 0.0669 0.0219s0.0223 0.022 0.0446 0.022 0.0447 0.022 0.067 0.022c0.1115 0.0439 0.2007 0.0878 0.3123 0.1537 0.0446 0.022 0.0669 0.044 0.1115 0.044 0.1116 0.0439 0.2008 0.1098 0.3124 0.1757 0.0223 0.022 0.0669 0.022 0.0892 0.0439 0.1115 0.0659 0.2008 0.1318 0.3123 0.1977 0.0223 0.022 0.0446 0.022 0.0669 0.044 0.067 0.0439 0.1339 0.0878 0.2008 0.1317 0.0446 0.022 0.0893 0.0659 0.1339 0.0879 0.0223 0.022 0.0446 0.022 0.0669 0.0439 0.1116 0.0659 0.2231 0.1538 0.3123 0.2417 0.0223 0.0219 0.0223 0.0219 0.0447 0.0439 0.1115 0.0879 0.223 0.1757 0.3123 0.2636l0.0223 0.022c0.1115 0.0878 0.2231 0.1977 0.3123 0.2855 0 0 0.0223 0 0.0223 0.022 0.1116 0.1098 0.2008 0.1977 0.3123 0.3075 0.0893 0.0879 0.1785 0.1977 0.2678 0.2856 0.0223 0.0219 0.0446 0.0659 0.0669 0.0878 0.0669 0.0659 0.1115 0.1318 0.1785 0.2197 0.0223 0.0439 0.0669 0.0659 0.0892 0.1098 0.0446 0.0659 0.1115 0.1318 0.1562 0.2197 0.0223 0.0439 0.0446 0.0878 0.0892 0.1098 0.0446 0.0659 0.0892 0.1318 0.1562 0.2197 0.0223 0.0439 0.0446 0.0878 0.0669 0.1098 0.0446 0.0659 0.0892 0.1538 0.1338 0.2197 0.0223 0.0439 0.0447 0.0878 0.067 0.1098 0.0446 0.0878 0.0892 0.1537 0.1338 0.2416 0.0223 0.0439 0.0446 0.0879 0.0669 0.1098 0.0447 0.0879 0.0893 0.1538 0.1339 0.2417 0.0223 0.0439 0.0446 0.0659 0.0446 0.1098 0.0446 0.0879 0.0892 0.1757 0.1116 0.2636 0.0223 0.0439 0.0223 0.0659 0.0446 0.1098 0.0446 0.0879 0.0669 0.1757 0.1115 0.2856 0.0223 0.0439 0.0223 0.0659 0.0446 0.1098 0.0447 0.0879 0.067 0.1977 0.0893 0.2856 0 0.0219 0.0223 0.0659 0.0223 0.0878 0.0223 0.1099 0.0669 0.1977 0.0892 0.3075 0 0.022 0.0223 0.0659 0.0223 0.0879 0.0223 0.1098 0.0446 0.2197 0.067 0.3295 0 0.022 0.0223 0.0659 0.0223 0.0879 0.0223 0.1098 0.0446 0.2196 0.0669 0.3295 0 0.0219 0 0.0439 0.0223 0.0659 0.0223 0.1098 0.0446 0.2416 0.0446 0.3514v0.0659c0.0223 0.1318 0.0223 0.2416 0.0446 0.3734v0.044c0 0.1318 0.0223 0.2635 0.0223 0.3953v0.1977c0 1.6475-0.4461 3.2071-1.2493 4.547-0.0892 0.1537-0.1784 0.3075-0.29 0.4613-0.0223 0.0439-0.0669 0.0878-0.0892 0.1318-0.0669 0.1098-0.1562 0.1977-0.2231 0.3075-0.0446 0.0439-0.0892 0.1098-0.1115 0.1538-0.067 0.0878-0.1562 0.1976-0.2231 0.2855-0.0447 0.0439-0.0893 0.0879-0.1116 0.1318-0.0892 0.1098-0.2008 0.2197-0.3123 0.3295-0.0223 0.022-0.0446 0.0439-0.0669 0.0659-0.1339 0.1318-0.2677 0.2416-0.4016 0.3734-0.0446 0.0439-0.0892 0.0659-0.1338 0.1098-0.0893 0.0879-0.2008 0.1538-0.2901 0.2417-0.0446 0.0439-0.1115 0.0878-0.1561 0.1318-0.0893 0.0659-0.1785 0.1318-0.29 0.1977-0.067 0.0439-0.1116 0.0878-0.1785 0.1098-0.1116 0.0659-0.2008 0.1318-0.3123 0.1977-0.0447 0.0219-0.0893 0.0659-0.1562 0.0878-0.1562 0.0879-0.3123 0.1758-0.4685 0.2417-0.0446 0.0219-0.1115 0.0439-0.1562 0.0659-0.1115 0.0439-0.223 0.1098-0.3346 0.1537-0.0669 0.022-0.1338 0.0659-0.2008 0.0879-0.1115 0.0439-0.2008 0.0879-0.3123 0.1098-0.0669 0.022-0.1562 0.044-0.2231 0.0879-0.1115 0.0439-0.2231 0.0659-0.3123 0.1098-0.0669 0.022-0.1339 0.0439-0.2231 0.0659-0.1785 0.0439-0.3346 0.0879-0.5131 0.1318-0.6024 0.1318-1.2493 0.1977-1.8963 0.1977-3.4132 0-6.3803-1.8232-7.9866-4.5469-0.7808-1.34-1.2493-2.8995-1.2493-4.547 0.0669-0.1757 0.0669-0.3515 0.0669-0.5272zm1.5394 0.5052c0-0.1537 0-0.3075 0.0223-0.4612 0.2454-3.9759 3.5917-7.117 7.6743-7.117 4.0825 0 7.4288 3.1631 7.6742 7.117 0 0.1537 0.0224 0.3075 0.0224 0.4612 0 4.1736-3.4579 7.5783-7.6966 7.5783-4.2388 0-7.6966-3.4047-7.6966-7.5783z" fill="#000" opacity=".1"/>
</g>
<path d="m40 19.132c-0.0892-3.0093-0.87-5.8429-2.164-8.369-0.0223-0.0439-0.0446-0.1098-0.0892-0.1537-3.3464-6.3043-10.017-10.61-17.736-10.61-7.0943 0-13.319 3.6464-16.888 9.1159-1.874 2.9214-3.0117 6.3701-3.1233 10.06v0.3514 0.1758c0 10.588 8.4997 19.22 19.141 19.682 0.29 0.0219 0.58 0.0219 0.8701 0.0219 11.043 0 20.011-8.8083 20.011-19.703-0.0223-0.1977-0.0223-0.3954-0.0223-0.5712zm-29.225 0.0659v-0.0659-0.0219c0-0.1318 0.0223-0.2416 0.0223-0.3734v-0.0659-0.044c0.0224-0.1537 0.0447-0.3075 0.067-0.4613v-0.0219c0-0.022 0.0223-0.0659 0.0223-0.0879 0.0223-0.1318 0.0446-0.2636 0.0892-0.3954 0.2008-0.8786 0.5354-1.7133 0.9816-2.4602v-0.0219c0.0669-0.1099 0.1339-0.2197 0.2008-0.3075 0.3346-0.5053 0.7139-0.9885 1.1378-1.4278 0.0223-0.022 0.0446-0.044 0.0446-0.0659 0.0669-0.0659 0.1338-0.1318 0.2231-0.1977 0.0223-0.022 0.0446-0.044 0.0892-0.0659 0.0669-0.0659 0.1338-0.1318 0.2008-0.1977 0.0223-0.022 0.0669-0.044 0.0892-0.0659 0.0669-0.0659 0.1339-0.1318 0.2231-0.1757 0.0223-0.022 0.0669-0.044 0.0892-0.0659 0.2454-0.1977 0.4908-0.3735 0.7585-0.5272 0.0447-0.022 0.0893-0.0659 0.1339-0.0879 0.0669-0.0439 0.1339-0.0879 0.2008-0.1098 0.0446-0.022 0.1115-0.0659 0.1561-0.0879 0.067-0.0439 0.1339-0.0659 0.2008-0.1098 0.0669-0.022 0.1116-0.0659 0.1785-0.0879 0.0669-0.0219 0.1338-0.0659 0.1785-0.0878 0.0669-0.022 0.1338-0.0659 0.2007-0.0879 0.067-0.022 0.1116-0.0439 0.1785-0.0879 0.0669-0.0219 0.1562-0.0659 0.2231-0.0878 0.0446-0.022 0.1116-0.044 0.1562-0.0659 0.1338-0.044 0.2677-0.0879 0.3792-0.1318 0.0223 0 0.067-0.022 0.0893-0.022 0.1115-0.022 0.2007-0.0659 0.3123-0.0879 0.0446-0.0219 0.1115-0.0219 0.1561-0.0439 0.0893-0.022 0.1785-0.0439 0.2678-0.0659 0.0669-0.0219 0.1115-0.0219 0.1784-0.0439 0.0893-0.022 0.1785-0.022 0.2677-0.0439 0.067 0 0.1116-0.022 0.1785-0.022 0.0892-0.022 0.1785-0.022 0.2677-0.0439 0.0669 0 0.1116-0.022 0.1785-0.022 0.0892 0 0.2008-0.022 0.29-0.022h0.1339c0.1561 0 0.29-0.0219 0.4461-0.0219 0.1562 0 0.3347 0 0.4908 0.0219h0.067 0.0892c0.0446 0 0.0892 0 0.1562 0.022 0.0669 0 0.1115 0 0.1784 0.022 0.0447 0 0.1116 0.0219 0.1562 0.0219h0.0223c0.1115 0.022 0.2008 0.022 0.3123 0.044 0.0446 0 0.0893 0.0219 0.1339 0.0219h0.0446c0.0892 0.022 0.2008 0.044 0.29 0.044 0.0446 0 0.0893 0.0219 0.1339 0.0219h0.0223c0.0892 0.022 0.2008 0.0439 0.29 0.0659 0.0446 0.022 0.1115 0.022 0.1562 0.0439 0.0892 0.022 0.2007 0.0659 0.29 0.0879 0.0446 0.022 0.0892 0.022 0.1338 0.0439 0.1116 0.044 0.2008 0.0659 0.29 0.1099 0 0 0.0224 0 0.0224 0.0219 0.0223 0.022 0.0669 0.022 0.0892 0.044 0.0892 0.0219 0.1562 0.0659 0.2454 0.1098 0.0223 0 0.0446 0.022 0.0669 0.022s0.0223 0.0219 0.0446 0.0219 0.0447 0.022 0.067 0.022c0.1115 0.0439 0.2007 0.0879 0.3123 0.1538 0.0446 0.0219 0.0669 0.0439 0.1115 0.0439 0.1116 0.0439 0.2008 0.1098 0.3124 0.1757 0.0223 0.022 0.0669 0.022 0.0892 0.044 0.1115 0.0658 0.2008 0.1317 0.3123 0.1976 0.0223 0.022 0.0446 0.022 0.0669 0.044 0.067 0.0439 0.1339 0.0878 0.2008 0.1318 0.0446 0.0219 0.0893 0.0659 0.1339 0.0878 0.0223 0.022 0.0446 0.022 0.0669 0.044 0.1116 0.0659 0.2231 0.1537 0.3123 0.2416 0.0223 0.022 0.0223 0.022 0.0447 0.0439 0.1115 0.0879 0.223 0.1758 0.3123 0.2636l0.0223 0.022c0.1115 0.0878 0.2231 0.1977 0.3123 0.2855 0 0 0.0223 0 0.0223 0.022 0.1116 0.1098 0.2008 0.1977 0.3123 0.3075 0.0893 0.0879 0.1785 0.1977 0.2678 0.2856 0.0223 0.022 0.0446 0.0659 0.0669 0.0878 0.0669 0.0659 0.1115 0.1318 0.1785 0.2197 0.0223 0.0439 0.0669 0.0659 0.0892 0.1098 0.0446 0.0659 0.1115 0.1318 0.1562 0.2197 0.0223 0.0439 0.0446 0.0879 0.0892 0.1098 0.0446 0.0659 0.0892 0.1318 0.1562 0.2197 0.0223 0.0439 0.0446 0.0879 0.0669 0.1098 0.0446 0.0659 0.0892 0.1538 0.1338 0.2197 0.0223 0.0439 0.0447 0.0878 0.067 0.1098 0.0446 0.0879 0.0892 0.1538 0.1338 0.2416 0.0223 0.044 0.0446 0.0879 0.0669 0.1099 0.0447 0.0878 0.0893 0.1537 0.1339 0.2416 0.0223 0.0439 0.0446 0.0659 0.0446 0.1098 0.0446 0.0879 0.0892 0.1757 0.1116 0.2636 0.0223 0.0439 0.0223 0.0659 0.0446 0.1098 0.0446 0.0879 0.0669 0.1758 0.1115 0.2856 0.0223 0.0439 0.0223 0.0659 0.0446 0.1098 0.0447 0.0879 0.067 0.1977 0.0893 0.2856 0 0.0219 0.0223 0.0659 0.0223 0.0878 0.0223 0.1099 0.0669 0.1977 0.0892 0.3076 0 0.0219 0.0223 0.0659 0.0223 0.0878 0.0223 0.1099 0.0446 0.2197 0.067 0.3295 0 0.022 0.0223 0.0659 0.0223 0.0879 0.0223 0.1098 0.0446 0.2196 0.0669 0.3295 0 0.0219 0 0.0439 0.0223 0.0659 0.0223 0.1098 0.0446 0.2416 0.0446 0.3514v0.0659c0.0223 0.1318 0.0223 0.2417 0.0446 0.3735v0.0439c0 0.1318 0.0223 0.2636 0.0223 0.3954v0.1977c0 1.6474-0.4461 3.207-1.2493 4.5469-0.0892 0.1538-0.1784 0.3075-0.29 0.4613-0.0223 0.0439-0.0669 0.0879-0.0892 0.1318-0.0669 0.1098-0.1562 0.1977-0.2231 0.3075-0.0446 0.044-0.0892 0.1098-0.1115 0.1538-0.067 0.0878-0.1562 0.1977-0.2231 0.2855-0.0447 0.044-0.0893 0.0879-0.1116 0.1318-0.0892 0.1099-0.2008 0.2197-0.3123 0.3295-0.0223 0.022-0.0446 0.044-0.0669 0.0659-0.1339 0.1318-0.2677 0.2416-0.4016 0.3734-0.0446 0.044-0.0892 0.0659-0.1338 0.1099-0.0893 0.0878-0.2008 0.1537-0.2901 0.2416-0.0446 0.0439-0.1115 0.0879-0.1561 0.1318-0.0893 0.0659-0.1785 0.1318-0.29 0.1977-0.067 0.0439-0.1116 0.0879-0.1785 0.1098-0.1116 0.0659-0.2008 0.1318-0.3123 0.1977-0.0447 0.022-0.0893 0.0659-0.1562 0.0879-0.1562 0.0878-0.3123 0.1757-0.4685 0.2416-0.0446 0.022-0.1115 0.0439-0.1562 0.0659-0.1115 0.0439-0.223 0.1098-0.3346 0.1538-0.0669 0.0219-0.1338 0.0659-0.2008 0.0878-0.1115 0.044-0.2008 0.0879-0.3123 0.1099-0.0669 0.0219-0.1562 0.0439-0.2231 0.0878-0.1115 0.0439-0.2231 0.0659-0.3123 0.1098-0.0669 0.022-0.1339 0.044-0.2231 0.0659-0.1785 0.044-0.3346 0.0879-0.5131 0.1318-0.6024 0.1318-1.2493 0.1977-1.8963 0.1977-3.4132 0-6.3803-1.8231-7.9866-4.5469-0.7808-1.3399-1.2493-2.8995-1.2493-4.547 0.0669-0.1977 0.0669-0.3734 0.0669-0.5272zm1.5394 0.5053c0-0.1538 0-0.3076 0.0223-0.4613 0.2454-3.9759 3.5917-7.117 7.6743-7.117 4.0825 0 7.4288 3.1631 7.6742 7.117 0 0.1537 0.0224 0.3075 0.0224 0.4613 0 4.1735-3.4579 7.5782-7.6966 7.5782-4.2388 0-7.6966-3.4047-7.6966-7.5782z" fill="#fff"/>
<path d="m27.998 24.25c-1.6063 2.7018-4.5734 4.547-7.9866 4.547-3.4133 0-6.3804-1.8232-7.9867-4.547h-0.0223l-8.8789-15.135c-1.9632 3.0532-3.1233 6.6776-3.1233 10.588 0 10.588 8.4997 19.22 19.141 19.682l8.8567-15.135z" fill="url(#e)"/>
<path d="m37.747 10.61h-17.736c5.0864 0 9.2359 4.0856 9.2359 9.0939 0 1.6474-0.4462 3.207-1.2493 4.5469h0.0223l-8.879 15.113c0.29 0.022 0.58 0.022 0.8701 0.022 11.043 0 20.011-8.8084 20.011-19.704-0.0223-3.2729-0.8254-6.3482-2.2755-9.0719z" fill="url(#d)"/>
<path d="m12.025 24.25c-0.7808-1.3399-1.2493-2.8995-1.2493-4.5469 0-5.0083 4.1494-9.0939 9.2359-9.0939h17.736c-3.3463-6.3043-10.017-10.61-17.736-10.61-7.0943 0-13.318 3.6464-16.888 9.1159l8.9013 15.135z" fill="url(#c)"/>
<path d="m20.011 27.282c4.2508 0 7.6966-3.3929 7.6966-7.5782 0-4.1854-3.4458-7.5783-7.6966-7.5783-4.2507 0-7.6965 3.3929-7.6965 7.5783 0 4.1853 3.4458 7.5782 7.6965 7.5782z" fill="url(#b)"/>
<path d="m10.775 19.704c0-0.7029 0.0892-1.3839 0.2454-2.0429l-7.8082-8.6546c-0.02231 0.04393-0.04462 0.08787-0.08924 0.1318l8.879 15.135h0.0223c-0.8031-1.3619-1.2493-2.9215-1.2493-4.5689z" fill="#D01E22"/>
<path d="m21.885 28.6-2.9448 10.763c0.067 0 0.1339 0 0.2008 0.0219l8.879-15.112h-0.0223c-1.2939 2.1746-3.5025 3.7781-6.1127 4.3273z" fill="#2DA535"/>
<path d="m26.748 13.487 11.088-2.7238c-0.0223-0.0439-0.0446-0.1098-0.0892-0.1537h-17.736c2.6548 0 5.0419 1.0983 6.7373 2.8775z" fill="#EFC01D"/>
<path d="m26.771 19.55v0.1538c0 3.6683-3.034 6.6556-6.7596 6.6556s-6.7596-2.9873-6.7596-6.6556v-0.1538c0.0892 3.6024 3.0786 6.5239 6.7596 6.5239 3.681-0.022 6.6704-2.9215 6.7596-6.5239zm12.315 0c-0.0893 10.28-8.6113 18.627-19.074 18.627-0.2677 0-0.5577 0-0.8254-0.0219-10.195-0.4174-18.182-8.6107-18.249-18.649v0.1757c0 10.104 8.0089 18.342 18.249 18.759 0.2677 0.022 0.5577 0.022 0.8254 0.022 10.53 0 19.074-8.4349 19.074-18.781v-0.1318zm-29.225-0.4174v-0.0878c0-0.1538 0.02231-0.3075 0.04462-0.4613v-0.0659c0.02231-0.1757 0.04462-0.3295 0.06693-0.5272 0.02231-0.1757 0.06695-0.3514 0.11155-0.5272 1.0708-4.5689 5.1311-7.754 9.9052-7.754 0.1785 0 0.3569 0 0.5354 0.02197 0.0446 0 0.1785 0.02197 0.1785 0.02197 0.1115 0 0.2231 0.02196 0.3346 0.02196 0.0446 0 0.2231 0.02197 0.2231 0.02197 0.1115 0.02196 0.2008 0.02196 0.3123 0.04393 0.0446 0 0.2008 0.04393 0.2008 0.04393 0.1115 0.02197 0.2008 0.04393 0.3123 0.0659 0.0446 0 0.1785 0.04393 0.1785 0.04393 0.1115 0.022 0.2231 0.0439 0.3346 0.0879l0.1785 0.0439c0.1115 0.022 0.2231 0.0659 0.3346 0.0879l0.1562 0.0439c0.1115 0.0439 0.2231 0.0659 0.3346 0.1098l0.1339 0.0659c0.1115 0.044 0.2231 0.0879 0.3346 0.1318l0.1339 0.0659c0.1115 0.0439 0.2231 0.1098 0.3346 0.1538l0.1116 0.0659c0.1115 0.0659 0.223 0.1098 0.3346 0.1757l0.0892 0.0439c0.1116 0.0659 0.2231 0.1318 0.357 0.1977l0.0669 0.044c0.1115 0.0659 0.2454 0.1537 0.3569 0.2416l0.0447 0.022c0.1115 0.0878 0.2454 0.1757 0.3792 0.2855h0.0446c0.1116 0.0879 0.2454 0.1977 0.357 0.2856l0.0223 0.0219c0.1115 0.1099 0.2454 0.1977 0.3792 0.3295 0.1116 0.1099 0.2231 0.2197 0.3347 0.3515 1.7401 1.8232 2.6994 4.1735 2.744 6.6557v-0.1318c0-2.5481-0.9816-4.9643-2.744-6.8314-0.1116-0.1099-0.2231-0.2417-0.3347-0.3515-0.1338-0.1318-0.2454-0.2416-0.3792-0.3295l-0.0223-0.022c-0.1116-0.1098-0.2454-0.1977-0.357-0.2855l-0.0223-0.022c-0.1338-0.1098-0.2454-0.1977-0.3792-0.2855l-0.0446-0.022c-0.1339-0.0879-0.2454-0.1757-0.357-0.2416l-0.0669-0.044c-0.1116-0.0659-0.2231-0.1318-0.357-0.1977l-0.0892-0.0439c-0.1115-0.0659-0.2231-0.1318-0.3346-0.1757l-0.1116-0.0659c-0.1115-0.0439-0.2231-0.1098-0.3346-0.1538l-0.1339-0.0659c-0.1115-0.0439-0.2231-0.0878-0.3346-0.1318l-0.1339-0.0659c-0.1115-0.0439-0.223-0.08783-0.3346-0.1098l-0.1562-0.04393c-0.1115-0.04393-0.223-0.0659-0.3346-0.08786l-0.1785-0.04393c-0.1115-0.02197-0.223-0.04394-0.3346-0.08787 0 0-0.1338-0.02196-0.1785-0.04393-0.0892-0.02197-0.2007-0.04393-0.3123-0.0659 0 0-0.1562-0.02196-0.2008-0.04393-0.0892-0.02196-0.2008-0.02197-0.3123-0.04393 0 0-0.1785-0.02197-0.2231-0.02197-0.1115-0.02196-0.2231-0.02196-0.3346-0.02196 0 0-0.1562-0.02197-0.1785-0.02197-0.1785 0-0.3569-0.02196-0.5354-0.02196-4.7518 0-8.8344 3.185-9.9052 7.7539-0.0446 0.1758-0.0669 0.3515-0.11154 0.5272-0.02231 0.1977-0.06693 0.3515-0.06693 0.5272v0.0659c-0.02231 0.1538-0.02231 0.3075-0.04462 0.4613v0.0878c0 0.1758-0.02231 0.3735-0.02231 0.5492v0.1318-0.3515z" fill="url(#a)" opacity=".5"/>
<path d="m12.315 19.704c0-0.1538 0-0.3076 0.0223-0.4613 0.2454 3.9758 3.5917 7.1169 7.6743 7.1169 4.0825 0 7.4288-3.1631 7.6742-7.1169 0 0.1537 0.0224 0.3075 0.0224 0.4613 0 4.1735-3.4579 7.5782-7.6966 7.5782-4.2388 0-7.6966-3.4047-7.6966-7.5782zm14.434-7.117c-0.1116-0.1098-0.2008-0.2197-0.3124-0.3075 0 0-0.0223 0-0.0223-0.022-0.1115-0.0879-0.2007-0.1977-0.3123-0.2856l-0.0223-0.0219c-0.1115-0.0879-0.2008-0.1757-0.3123-0.2636-0.0223-0.022-0.0223-0.022-0.0446-0.0439-0.1116-0.0879-0.2008-0.1538-0.3124-0.2417-0.0223-0.0219-0.0446-0.0219-0.0669-0.0439-0.1115-0.0659-0.2008-0.1318-0.3123-0.2197-0.0223-0.0219-0.0446-0.0219-0.067-0.0439-0.1115-0.0659-0.2007-0.1318-0.3123-0.1977-0.0223-0.0219-0.0669-0.0219-0.0892-0.0439-0.1116-0.0659-0.2008-0.1098-0.3123-0.1757-0.0447-0.022-0.067-0.044-0.1116-0.044-0.1115-0.0439-0.2008-0.0878-0.3123-0.1537-0.0446-0.022-0.0669-0.044-0.1116-0.044-0.0892-0.0439-0.2007-0.0878-0.3123-0.1318-0.0446-0.0219-0.0892-0.0439-0.1338-0.0439-0.0893-0.0439-0.2008-0.0659-0.2901-0.1098-0.0446-0.022-0.0892-0.022-0.1338-0.044-0.0892-0.0219-0.2008-0.0659-0.29-0.0878-0.0446-0.02199-0.1116-0.02199-0.1562-0.04395-0.0892-0.02197-0.2008-0.04394-0.29-0.0659-0.0446-0.02197-0.1115-0.02197-0.1562-0.04393-0.0892-0.02197-0.2007-0.04393-0.29-0.04393-0.0669 0-0.1115-0.02197-0.1785-0.02197-0.0892-0.02197-0.2007-0.02197-0.3123-0.04393-0.0669 0-0.1115-0.02197-0.1784-0.02197-0.1116-0.02196-0.2231-0.02196-0.3347-0.02196-0.0446 0-0.0892 0-0.1561-0.02197-0.1562 0-0.3124-0.02197-0.4908-0.02197-4.3726 0-8.0536 3.0094-8.9906 7.0511-0.0446 0.1538-0.0669 0.3295-0.0892 0.4832v0.022c-0.0223 0.1538-0.0446 0.3075-0.0669 0.4613v0.0659c-0.0223 0.1318-0.0223 0.2855-0.0446 0.4173v0.0879c0 0.1757-0.0224 0.3295-0.0224 0.5052 0 0.1318 0 0.2856 0.0224 0.4174v-0.022-0.0878c0-0.1318 0.0223-0.2856 0.0446-0.4174v-0.0659c0.0223-0.1538 0.0446-0.3075 0.0669-0.4613v-0.022c0.0223-0.1537 0.0669-0.3294 0.0892-0.4832 0.937-3.9978 4.5957-7.0071 8.9906-7.0071 0.1561 0 0.3346 0 0.4908 0.0219 0.0446 0 0.0892 0 0.1561 0.022 0.1116 0 0.2231 0.022 0.3347 0.022 0.0669 0 0.1115 0.0219 0.1784 0.0219 0.1116 0.022 0.2008 0.022 0.3123 0.044 0.067 0 0.1116 0.0219 0.1785 0.0219 0.0893 0.022 0.2008 0.044 0.29 0.044 0.0447 0.0219 0.1116 0.0219 0.1562 0.0439 0.0892 0.022 0.2008 0.0439 0.29 0.0659 0.0446 0.0219 0.1116 0.0219 0.1562 0.0439 0.0892 0.022 0.2008 0.0659 0.29 0.0879 0.0446 0.0219 0.0892 0.0219 0.1338 0.0439 0.1116 0.0439 0.2008 0.0659 0.2901 0.1098 0.0446 0.022 0.0892 0.044 0.1338 0.044 0.1116 0.0439 0.2008 0.0878 0.3123 0.1318 0.0447 0.0219 0.067 0.0439 0.1116 0.0439 0.1115 0.0439 0.2008 0.0879 0.3123 0.1538 0.0446 0.0219 0.0669 0.0439 0.1116 0.0439 0.1115 0.0439 0.2007 0.1098 0.3123 0.1757 0.0223 0.022 0.0669 0.022 0.0892 0.044 0.1116 0.0659 0.2008 0.1317 0.3123 0.1976 0.0224 0.022 0.0447 0.022 0.067 0.044 0.1115 0.0659 0.2231 0.1318 0.3123 0.2196 0.0223 0.022 0.0446 0.022 0.0669 0.044 0.1116 0.0659 0.2231 0.1537 0.3124 0.2416 0.0223 0.022 0.0223 0.022 0.0446 0.0439 0.1115 0.0879 0.2231 0.1758 0.3123 0.2636l0.0223 0.022c0.1116 0.0878 0.2231 0.1977 0.3123 0.2855 0 0 0.0223 0 0.0223 0.022 0.1116 0.1098 0.2008 0.1977 0.3124 0.3075 1.4501 1.5157 2.3647 3.5146 2.4763 5.7112 0-0.1318 0.0223-0.2856 0.0223-0.4174 0-2.4382-0.9593-4.6128-2.4986-6.2383zm-6.7373 25.898c-0.2901 0-0.5801 1e-4 -0.8701-0.0219-10.53-0.4393-18.918-8.8743-19.141-19.286v0.5272c0 10.588 8.4997 19.22 19.141 19.682 0.29 0.0219 0.58 0.0219 0.8701 0.0219 11.043 0 20.011-8.8083 20.011-19.703v-0.5712c-0.2008 10.719-9.0797 19.352-20.011 19.352z" fill="#000" opacity=".05"/>
<path d="m12.315 19.704v-0.1538c0.0892 4.1076 3.5025 7.4245 7.6966 7.4245 4.194 0 7.6073-3.3169 7.6966-7.4245v0.1538c0 4.1735-3.4579 7.5782-7.6966 7.5782-4.2388 0-7.6966-3.4047-7.6966-7.5782zm14.434-6.5239c-0.1116-0.1099-0.2008-0.2197-0.3124-0.3075l-0.0223-0.022c-0.1115-0.0879-0.2007-0.1977-0.3123-0.2856l-0.0223-0.0219c-0.1115-0.0879-0.2008-0.1758-0.3123-0.2636l-0.0446-0.044c-0.1116-0.0878-0.2008-0.1537-0.3124-0.2416-0.0223-0.022-0.0446-0.022-0.0669-0.0439-0.1115-0.0659-0.2008-0.1318-0.3123-0.2197-0.0223-0.0219-0.0446-0.0219-0.067-0.0439-0.1115-0.0659-0.2007-0.1318-0.3123-0.1977-0.0223-0.022-0.0669-0.022-0.0892-0.0439-0.1116-0.0659-0.2008-0.1099-0.3123-0.1758-0.0447-0.0219-0.067-0.0439-0.1116-0.0439-0.1115-0.0439-0.2008-0.0879-0.3123-0.1538-0.0446-0.0219-0.0669-0.0439-0.1116-0.0439-0.0892-0.0439-0.2007-0.0879-0.3123-0.1318-0.0446-0.022-0.0892-0.0439-0.1338-0.0439-0.0893-0.0439-0.2008-0.0659-0.2901-0.1098-0.0446-0.022-0.0892-0.022-0.1338-0.044-0.0892-0.0219-0.2008-0.0659-0.29-0.0878-0.0446-0.022-0.1116-0.022-0.1562-0.044-0.0892-0.0219-0.2008-0.0439-0.29-0.0659-0.0446-0.0219-0.1115-0.0219-0.1562-0.0439-0.0892-0.022-0.2007-0.0439-0.29-0.0439-0.0669 0-0.1115-0.022-0.1785-0.022-0.0892-0.022-0.2007-0.022-0.3123-0.0439-0.0669 0-0.1115-0.022-0.1784-0.022-0.1116-0.022-0.2231-0.022-0.3347-0.022-0.0446 0-0.0892 0-0.1561-0.0219-0.1562 0-0.3124-0.022-0.4908-0.022-4.3949 0.0439-8.0536 3.0533-9.0129 7.095-0.0446 0.1538-0.0669 0.3295-0.0892 0.4833v0.0219c-0.0223 0.1538-0.0446 0.3075-0.0669 0.4613v0.0659c-0.0223 0.1318-0.0223 0.2856-0.0447 0.4174v0.0878c0 0.1758-0.0223 0.3295-0.0223 0.5052v0.1318-0.3514-0.0879c0-0.1318 0.0223-0.2855 0.0447-0.4173v-0.0659c0.0223-0.1538 0.0446-0.3076 0.0669-0.4613v-0.022c0.0223-0.1537 0.0669-0.3295 0.0892-0.4832 0.9816-4.0198 4.6403-7.0291 9.0352-7.0291 0.1561 0 0.3346 0 0.4908 0.0219 0.0446 0 0.0892 0 0.1561 0.022 0.1116 0 0.2231 0.022 0.3347 0.022 0.0669 0 0.1115 0.0219 0.1784 0.0219 0.1116 0.022 0.2008 0.022 0.3123 0.044 0.067 0 0.1116 0.0219 0.1785 0.0219 0.0893 0.022 0.2008 0.044 0.29 0.044 0.0447 0.0219 0.1116 0.0219 0.1562 0.0439 0.0892 0.0219 0.2008 0.0439 0.29 0.0659 0.0446 0.0219 0.1116 0.0219 0.1562 0.0439 0.0892 0.022 0.2008 0.0659 0.29 0.0879 0.0446 0.0219 0.0892 0.0219 0.1338 0.0439 0.1116 0.0439 0.2008 0.0659 0.2901 0.1098 0.0446 0.022 0.0892 0.044 0.1338 0.044 0.1116 0.0439 0.2008 0.0878 0.3123 0.1318 0.0447 0.0219 0.067 0.0439 0.1116 0.0439 0.1115 0.0439 0.2008 0.0879 0.3123 0.1538 0.0446 0.0219 0.0669 0.0439 0.1116 0.0439 0.1115 0.0439 0.2007 0.1098 0.3123 0.1757 0.0223 0.022 0.0669 0.022 0.0892 0.044 0.1116 0.0658 0.2008 0.1317 0.3123 0.1976 0.0224 0.022 0.0447 0.022 0.067 0.044 0.1115 0.0659 0.2231 0.1318 0.3123 0.2196 0.0223 0.022 0.0446 0.022 0.0669 0.044 0.1116 0.0659 0.2231 0.1537 0.3124 0.2416 0.0223 0.022 0.0223 0.022 0.0446 0.0439 0.1115 0.0879 0.2231 0.1758 0.3123 0.2636l0.0223 0.022c0.1116 0.0878 0.2231 0.1977 0.3123 0.2855 0 0 0.0223 0 0.0223 0.022 0.1116 0.1098 0.2008 0.1977 0.3124 0.3075 1.517 1.5816 2.454 3.7123 2.4986 6.0407v-0.1318c0-2.4383-0.9593-4.6348-2.4986-6.2603zm-6.7373 25.92c-0.2901 0-0.5801 0-0.8701-0.022-10.597-0.4393-19.074-9.006-19.141-19.55v0.1758c0 10.588 8.4997 19.22 19.141 19.682 0.29 0.0219 0.58 0.0219 0.8701 0.0219 11.043 0 20.011-8.8083 20.011-19.703v-0.1977c-0.0892 10.829-9.0128 19.594-20.011 19.594z" fill="#000" opacity=".1"/>
<defs>
<linearGradient id="e" x1="14.003" x2="14.003" y1="39.371" y2="24.229" gradientUnits="userSpaceOnUse">
<stop stop-color="#48A34B" offset="0"/>
<stop stop-color="#4BB64B" offset="1"/>
</linearGradient>
<linearGradient id="d" x1="29.572" x2="29.572" y1="39.392" y2="24.342" gradientUnits="userSpaceOnUse">
<stop stop-color="#EFC01D" offset="0"/>
<stop stop-color="#FCD11C" offset="1"/>
</linearGradient>
<radialGradient id="c" cx="0" cy="0" r="1" gradientTransform="translate(20.595 2.2009) scale(18.029 14.37)" gradientUnits="userSpaceOnUse">
<stop stop-color="#EE6959" offset="0"/>
<stop stop-color="#E03131" offset="1"/>
</radialGradient>
<radialGradient id="b" cx="0" cy="0" r="1" gradientTransform="translate(20.157 15.454) scale(12.16 11.973)" gradientUnits="userSpaceOnUse">
<stop stop-color="#72A6D8" offset="0"/>
<stop stop-color="#6EA3D5" offset=".192"/>
<stop stop-color="#619ACD" offset=".391"/>
<stop stop-color="#4D8CBF" offset=".5932"/>
<stop stop-color="#3077AC" offset=".7966"/>
<stop stop-color="#0B5D93" offset="1"/>
</radialGradient>
<linearGradient id="a" x1=".92334" x2="39.084" y1="23.938" y2="23.938" gradientUnits="userSpaceOnUse">
<stop stop-color="#fff" stop-opacity="0" offset="0"/>
<stop stop-color="#fff" offset=".5"/>
<stop stop-color="#fff" stop-opacity="0" offset="1"/>
</linearGradient>
</defs>
</svg>
