<?xml version="1.0" encoding="UTF-8"?>
<svg fill="none" viewBox="0 0 22 22" xmlns="http://www.w3.org/2000/svg">
<g clip-path="url(#b)">
<path d="m11 22c6.0751 0 11-4.9249 11-11 0-6.0751-4.9249-11-11-11-6.0751 0-11 4.9249-11 11 0 6.0751 4.9249 11 11 11z" fill="url(#a)"/>
<path d="m16.743 6.7099-1.4536-1.4536c-0.2128-0.21273-0.5576-0.21273-0.7704 0l-3.5194 3.5194-3.5189-3.5194c-0.21274-0.21273-0.55763-0.21273-0.77036 0l-1.4536 1.4536c-0.21274 0.21274-0.21274 0.55762 0 0.77036l3.5194 3.5194-3.5194 3.5194c-0.21274 0.2128-0.21274 0.5577 0 0.7704l1.4536 1.4536c0.21273 0.2128 0.55762 0.2128 0.77036 0l3.5189-3.5194 3.5194 3.5194c0.2128 0.2128 0.5576 0.2128 0.7704 0l1.4536-1.4536c0.2127-0.2127 0.2127-0.5576 0-0.7704l-3.5194-3.5194 3.5194-3.5194c0.2127-0.21274 0.2127-0.55762 0-0.77036z" fill="#fff"/>
</g>
<defs>
<linearGradient id="a" x1="6.1725" x2="17.174" y1="1.0815" y2="20.137" gradientUnits="userSpaceOnUse">
<stop stop-color="#FF1768" offset=".1575"/>
<stop stop-color="#F95BF2" offset=".9993"/>
</linearGradient>
<clipPath id="b">
<rect width="22" height="22" fill="#fff"/>
</clipPath>
</defs>
</svg>
