<svg viewBox="0 0 200 16" fill="none" xmlns="http://www.w3.org/2000/svg">
  <path d="M4.84657 0.831847C7.23056 0.831847 9.03194 1.42821 10.2507 2.62094C11.4669 3.81614 12.075 5.57059 12.075 7.88429C12.075 10.2104 11.4695 11.9611 10.2584 13.1365C9.04724 14.3119 7.24331 14.8996 4.84657 14.8996H0.0275879V0.831847H4.84657ZM10.1627 7.82861C10.1627 5.97271 9.71654 4.60552 8.82414 3.72706C7.93173 2.8486 6.60588 2.40937 4.84657 2.40937H1.88251V13.3221H4.84657C6.61863 13.3221 7.94831 12.8829 8.83561 12.0044C9.72037 11.1259 10.1627 9.73401 10.1627 7.82861ZM15.2494 14.8996V0.831847H17.1044V14.8996H15.2494ZM25.3081 15.2151C23.4596 15.2151 21.8086 14.8811 20.3553 14.2129V12.5055C21.8214 13.2602 23.4723 13.6376 25.3081 13.6376C26.3662 13.6376 27.1401 13.4211 27.6296 12.988C28.1217 12.555 28.3678 11.9858 28.3678 11.2806C28.3678 10.6125 28.1409 10.1114 27.687 9.77732C27.2357 9.44325 26.5702 9.15249 25.6906 8.90504L24.3902 8.55242C23.6508 8.34208 23.0197 8.10081 22.497 7.82861C21.9743 7.55641 21.5371 7.16296 21.1852 6.64826C20.8359 6.13603 20.6612 5.46543 20.6612 4.63646C20.6612 3.31258 21.059 2.3042 21.8545 1.61133C22.6526 0.918457 23.7847 0.572021 25.2507 0.572021C26.1049 0.572021 26.8571 0.648732 27.5072 0.802153C28.1574 0.95805 28.8331 1.19066 29.5343 1.49997V3.17029C28.2339 2.48979 26.8061 2.14954 25.2507 2.14954C24.3073 2.14954 23.6189 2.36235 23.1855 2.78797C22.752 3.21607 22.5353 3.8013 22.5353 4.54366C22.548 5.22416 22.7609 5.72525 23.174 6.04694C23.5896 6.36863 24.2372 6.65321 25.1169 6.90066L26.4364 7.25328C27.214 7.46362 27.8731 7.70736 28.4137 7.98451C28.9568 8.26413 29.3966 8.66625 29.7332 9.19085C30.0723 9.71793 30.2418 10.4021 30.2418 11.2435C30.2291 12.4684 29.7854 13.4372 28.9109 14.1498C28.0389 14.86 26.8379 15.2151 25.3081 15.2151ZM42.8018 0.831847V2.44649H38.4417V14.8996H36.5677V2.44649H32.2077V0.831847H42.8018ZM54.0078 14.8996L50.2788 8.94216H47.4678V14.8996H45.6128V0.831847H50.6804C53.8421 0.831847 55.4229 2.19285 55.4229 4.91484C55.4229 5.99127 55.159 6.85983 54.6312 7.52053C54.1009 8.18371 53.3066 8.61428 52.2485 8.81224L56.1305 14.8996H54.0078ZM47.4678 2.40937V7.36464H50.6804C52.5672 7.36464 53.517 6.54804 53.5297 4.91484C53.5297 4.04875 53.2939 3.41527 52.8222 3.01439C52.3505 2.61104 51.6366 2.40937 50.6804 2.40937H47.4678ZM59.1136 14.8996V0.831847H60.9686V14.8996H59.1136ZM72.6527 7.75438C74.3865 8.29878 75.2534 9.41232 75.2534 11.095C75.2534 12.3818 74.8544 13.3369 74.0563 13.9605C73.2608 14.5866 71.9324 14.8996 70.0711 14.8996H65.0609V0.831847H70.0711C71.7666 0.831847 72.9586 1.14116 73.6471 1.7598C74.3355 2.37844 74.6797 3.32495 74.6797 4.59934C74.6797 5.35407 74.5165 5.99374 74.1902 6.51834C73.8663 7.04542 73.3539 7.45743 72.6527 7.75438ZM66.9158 2.35369V7.08625H70.0711C71.8686 7.08625 72.7738 6.30058 72.7865 4.72925C72.7865 3.86316 72.5889 3.25071 72.1937 2.8919C71.7985 2.5331 71.091 2.35369 70.0711 2.35369H66.9158ZM73.3602 10.9837C73.3602 10.1547 73.0823 9.55089 72.5265 9.17229C71.9732 8.79616 71.1547 8.60809 70.0711 8.60809H66.9158V13.3778H70.0711C71.2694 13.3778 72.1172 13.186 72.6144 12.8024C73.1116 12.4189 73.3602 11.8126 73.3602 10.9837ZM84.0652 15.2151C82.2167 15.2151 80.8335 14.7598 79.9156 13.8492C78.9977 12.941 78.5387 11.6518 78.5387 9.98146V0.831847H80.4128V9.98146C80.4128 11.1816 80.7187 12.091 81.3307 12.7096C81.9426 13.3283 82.8541 13.6376 84.0652 13.6376C85.2764 13.6376 86.1879 13.3283 86.7998 12.7096C87.4118 12.091 87.7177 11.1816 87.7177 9.98146V0.831847H89.5918V9.98146C89.5918 11.6518 89.1328 12.941 88.2149 13.8492C87.297 14.7598 85.9138 15.2151 84.0652 15.2151ZM102.92 0.831847V2.44649H98.5604V14.8996H96.6864V2.44649H92.3263V0.831847H102.92ZM107.586 13.3407H114.605V14.8996H105.732V0.831847H114.509V2.39081H107.586V7.04913H113.553V8.60809H107.586V13.3407ZM122.617 0.831847C125.001 0.831847 126.801 1.42821 128.017 2.62094C129.236 3.81614 129.846 5.57059 129.846 7.88429C129.846 10.2104 129.24 11.9611 128.029 13.1365C126.818 14.3119 125.014 14.8996 122.617 14.8996H117.798V0.831847H122.617ZM127.933 7.82861C127.933 5.97271 127.487 4.60552 126.595 3.72706C125.702 2.8486 124.376 2.40937 122.617 2.40937H119.653V13.3221H122.617C124.387 13.3221 125.715 12.8829 126.602 12.0044C127.49 11.1259 127.933 9.73401 127.933 7.82861ZM141.335 15.2151C139.486 15.2151 137.835 14.8811 136.382 14.2129V12.5055C137.848 13.2602 139.499 13.6376 141.335 13.6376C142.393 13.6376 143.168 13.4211 143.66 12.988C144.15 12.555 144.394 11.9858 144.394 11.2806C144.394 10.6125 144.169 10.1114 143.717 9.77732C143.263 9.44325 142.597 9.15249 141.717 8.90504L140.417 8.55242C139.677 8.34208 139.046 8.10081 138.524 7.82861C138.001 7.55641 137.565 7.16296 137.216 6.64826C136.864 6.13603 136.688 5.46543 136.688 4.63646C136.688 3.31258 137.087 2.3042 137.885 1.61133C138.68 0.918457 139.811 0.572021 141.277 0.572021C142.131 0.572021 142.884 0.648732 143.534 0.802153C144.184 0.95805 144.86 1.19066 145.561 1.49997V3.17029C144.26 2.48979 142.833 2.14954 141.277 2.14954C140.334 2.14954 139.645 2.36235 139.212 2.78797C138.779 3.21607 138.562 3.8013 138.562 4.54366C138.575 5.22416 138.789 5.72525 139.204 6.04694C139.617 6.36863 140.264 6.65321 141.143 6.90066L142.463 7.25328C143.241 7.46362 143.901 7.70736 144.444 7.98451C144.985 8.26413 145.424 8.66625 145.763 9.19085C146.1 9.71793 146.268 10.4021 146.268 11.2435C146.256 12.4684 145.813 13.4372 144.941 14.1498C144.067 14.86 142.864 15.2151 141.335 15.2151ZM158.832 0.831847V2.44649H154.472V14.8996H152.598V2.44649H148.238V0.831847H158.832ZM167.587 15.2151C166.098 15.2151 164.833 14.8959 163.793 14.2575C162.752 13.6215 161.972 12.7492 161.452 11.6406C160.929 10.5345 160.668 9.28241 160.668 7.88429C160.668 6.51092 160.929 5.27365 161.452 4.17248C161.972 3.07131 162.752 2.19532 163.793 1.54452C164.833 0.896186 166.098 0.572021 167.587 0.572021C169.065 0.572021 170.321 0.896186 171.354 1.54452C172.389 2.19532 173.17 3.07378 173.698 4.1799C174.226 5.2885 174.49 6.52329 174.49 7.88429C174.49 9.28241 174.229 10.5345 173.706 11.6406C173.186 12.7492 172.406 13.6215 171.365 14.2575C170.325 14.8959 169.065 15.2151 167.587 15.2151ZM167.587 13.6376C168.632 13.6376 169.531 13.384 170.283 12.8767C171.035 12.3694 171.606 11.6765 171.996 10.7981C172.384 9.9196 172.578 8.92978 172.578 7.82861C172.578 6.76456 172.38 5.80196 171.985 4.94082C171.592 4.08216 171.018 3.40166 170.264 2.89933C169.512 2.39947 168.619 2.14954 167.587 2.14954C166.516 2.14954 165.604 2.40318 164.852 2.91046C164.102 3.41774 163.536 4.10443 163.154 4.97052C162.771 5.83661 162.58 6.80787 162.58 7.88429C162.58 8.98546 162.771 9.96909 163.154 10.8352C163.536 11.7013 164.102 12.3842 164.852 12.8841C165.604 13.3864 166.516 13.6376 167.587 13.6376ZM186.021 14.8996L182.292 8.94216H179.481V14.8996H177.626V0.831847H182.694C185.855 0.831847 187.436 2.19285 187.436 4.91484C187.436 5.99127 187.172 6.85983 186.645 7.52053C186.114 8.18371 185.32 8.61428 184.262 8.81224L188.144 14.8996H186.021ZM179.481 2.40937V7.36464H182.694C184.58 7.36464 185.53 6.54804 185.543 4.91484C185.543 4.04875 185.307 3.41527 184.835 3.01439C184.364 2.61104 183.65 2.40937 182.694 2.40937H179.481ZM192.982 13.3407H200V14.8996H191.127V0.831847H199.904V2.39081H192.982V7.04913H198.948V8.60809H192.982V13.3407Z" fill="currentColor"/>
</svg>
