<svg viewBox="0 0 32 32" fill="none" xmlns="http://www.w3.org/2000/svg">
<path d="M32 16C32 7.15851 24.8415 0 16 0C7.15852 0 0 7.15851 0 16C0 23.9881 5.85482 30.6015 13.5111 31.8103V20.6222H9.43407V16H13.5111V12.4681C13.5111 8.46221 15.8815 6.25777 19.5319 6.25777C21.2859 6.25777 23.1111 6.56592 23.1111 6.56592V10.5007H21.0963C19.1052 10.5007 18.4889 11.7333 18.4889 12.9896V16H22.9215L22.2104 20.6222H18.4889V31.8103C26.1452 30.6015 32 23.9881 32 16Z" fill="white"/>
<path d="M22.234 20.6222L22.9451 16H18.4888V12.9897C18.4888 11.7334 19.1051 10.5008 21.0962 10.5008H23.111V6.56596C23.111 6.56596 21.2858 6.25781 19.5318 6.25781C15.8814 6.25781 13.511 8.46225 13.511 12.4682V16H9.43398V20.6222H13.511V31.8104C14.3169 31.9289 15.1703 32 15.9999 32C16.8532 32 17.6829 31.9289 18.4888 31.8104V20.6222H22.234Z" fill="currentColor"/>
</svg>
