<?xml version="1.0" encoding="UTF-8"?>
<svg fill="none" viewBox="0 0 18 18" xmlns="http://www.w3.org/2000/svg">
<path d="m9.0001 13.167c0.23611 0 0.43417-0.08 0.59417-0.24 0.15944-0.1595 0.23916-0.3573 0.23916-0.5934v-3.3541c0-0.23611-0.07972-0.43056-0.23916-0.58334-0.16-0.15278-0.35806-0.22916-0.59417-0.22916s-0.43389 0.07972-0.59333 0.23916c-0.16 0.16-0.24 0.35806-0.24 0.59417v3.3542c0 0.2361 0.08 0.4305 0.24 0.5833 0.15944 0.1528 0.35722 0.2292 0.59333 0.2292zm0-6.6667c0.23611 0 0.43417-0.08 0.59417-0.24 0.15944-0.15945 0.23916-0.35722 0.23916-0.59333s-0.07972-0.43417-0.23916-0.59417c-0.16-0.15944-0.35806-0.23917-0.59417-0.23917s-0.43389 0.07973-0.59333 0.23917c-0.16 0.16-0.24 0.35806-0.24 0.59417s0.08 0.43388 0.24 0.59333c0.15944 0.16 0.35722 0.24 0.59333 0.24zm0 10.833c-1.1528 0-2.2361-0.2189-3.25-0.6566-1.0139-0.4373-1.8958-1.0309-2.6458-1.7809s-1.3436-1.6319-1.7808-2.6458c-0.43777-1.0139-0.65666-2.0972-0.65666-3.25 0-1.1528 0.21889-2.2361 0.65666-3.25 0.43723-1.0139 1.0308-1.8958 1.7808-2.6458s1.6319-1.3439 2.6458-1.7817c1.0139-0.43722 2.0972-0.65583 3.25-0.65583 1.1528 0 2.2361 0.21861 3.25 0.65583 1.0139 0.43778 1.8958 1.0317 2.6458 1.7817s1.3436 1.6319 1.7808 2.6458c0.4378 1.0139 0.6567 2.0972 0.6567 3.25 0 1.1528-0.2189 2.2361-0.6567 3.25-0.4372 1.0139-1.0308 1.8958-1.7808 2.6458s-1.6319 1.3436-2.6458 1.7809c-1.0139 0.4377-2.0972 0.6566-3.25 0.6566z" fill="#A9A9A9"/>
</svg>
