<?xml version="1.0" encoding="UTF-8"?>
<svg viewBox="0 0 32 32" xmlns="http://www.w3.org/2000/svg">
<path d="m16 32c8.8366 0 16-7.1634 16-16 0-8.8366-7.1634-16-16-16-8.8366 0-16 7.1634-16 16 0 8.8366 7.1634 16 16 16z" fill="#fff"/>
<path d="m16 5.9258c-2.726 0-3.0815 0-4.1482 0.07111-1.0667 0.04741-1.8015 0.21334-2.4415 0.47408-0.6637 0.26074-1.2326 0.59259-1.7778 1.1615-0.56889 0.56889-0.90074 1.1141-1.1615 1.7778-0.26074 0.63997-0.42667 1.3748-0.47407 2.4415-0.04741 1.0667-0.07112 1.4222-0.07112 4.1482 0 2.7259 1e-5 3.0814 0.07112 4.1481 0.0474 1.0667 0.21333 1.8015 0.47407 2.4415 0.26074 0.6637 0.59259 1.2326 1.1615 1.7778 0.56889 0.5689 1.1141 0.9007 1.7778 1.1614 0.63997 0.2608 1.3748 0.4267 2.4415 0.4741s1.4222 0.0711 4.1482 0.0711c2.7259 0 3.0814 0 4.1481-0.0711 1.0667-0.0474 1.8015-0.2133 2.4415-0.4741 0.6637-0.2607 1.2326-0.5925 1.7778-1.1614 0.5689-0.5689 0.9007-1.1141 1.1615-1.7778 0.2607-0.64 0.4266-1.3748 0.474-2.4415s0.0711-1.4222 0.0711-4.1481c0-2.726 0-3.0815-0.0711-4.1482-0.0474-1.0667-0.2133-1.8015-0.474-2.4415-0.2608-0.66371-0.5926-1.2326-1.1615-1.7778-0.5689-0.56889-1.1141-0.90074-1.7778-1.1615-0.64-0.26074-1.3748-0.42667-2.4415-0.47408-1.0667-0.07111-1.3985-0.07111-4.1481-0.07111z" fill="currentColor"/>
<path d="m15.999 10.832c-2.8681 0-5.1674 2.323-5.1674 5.1674 0 2.8445 2.323 5.1674 5.1674 5.1674 2.8682 0 5.1674-2.3229 5.1674-5.1674 0-2.8444-2.2992-5.1674-5.1674-5.1674zm0 8.5334c-1.8489 0-3.3659-1.4934-3.3659-3.366s1.4933-3.3659 3.3659-3.3659c1.8489 0 3.366 1.4933 3.366 3.3659s-1.4934 3.366-3.366 3.366z" fill="#fff"/>
<path d="m21.381 11.828c0.6676 0 1.2088-0.5412 1.2088-1.2089 0-0.66761-0.5412-1.2088-1.2088-1.2088-0.6677 0-1.2089 0.54123-1.2089 1.2088 0 0.6677 0.5412 1.2089 1.2089 1.2089z" fill="#fff"/>
</svg>
