<svg viewBox="0 0 32 32" fill="none" xmlns="http://www.w3.org/2000/svg">
<path d="M16 32C24.8366 32 32 24.8366 32 16C32 7.16344 24.8366 0 16 0C7.16344 0 0 7.16344 0 16C0 24.8366 7.16344 32 16 32Z" fill="white"/>
<path d="M16 5.92578C13.2741 5.92578 12.9185 5.92578 11.8518 5.99689C10.7852 6.0443 10.0504 6.21023 9.41035 6.47097C8.74665 6.73171 8.17776 7.06356 7.63257 7.63245C7.06368 8.20134 6.73183 8.74652 6.47109 9.41023C6.21035 10.0502 6.04443 10.785 5.99702 11.8517C5.94961 12.9184 5.9259 13.2739 5.9259 15.9999C5.9259 18.7258 5.92591 19.0813 5.99702 20.148C6.04443 21.2147 6.21035 21.9495 6.47109 22.5895C6.73183 23.2532 7.06368 23.8221 7.63257 24.3673C8.20146 24.9362 8.74665 25.268 9.41035 25.5287C10.0504 25.7895 10.7852 25.9554 11.8518 26.0028C12.9185 26.0502 13.2741 26.0739 16 26.0739C18.7259 26.0739 19.0815 26.0739 20.1481 26.0028C21.2148 25.9554 21.9496 25.7895 22.5896 25.5287C23.2533 25.268 23.8222 24.9362 24.3674 24.3673C24.9363 23.7984 25.2681 23.2532 25.5289 22.5895C25.7896 21.9495 25.9555 21.2147 26.003 20.148C26.0504 19.0813 26.0741 18.7258 26.0741 15.9999C26.0741 13.2739 26.0741 12.9184 26.003 11.8517C25.9555 10.785 25.7896 10.0502 25.5289 9.41023C25.2681 8.74652 24.9363 8.17763 24.3674 7.63245C23.7985 7.06356 23.2533 6.73171 22.5896 6.47097C21.9496 6.21023 21.2148 6.0443 20.1481 5.99689C19.0815 5.92578 18.7496 5.92578 16 5.92578Z" fill="currentColor"/>
<path d="M15.9999 10.8324C13.1317 10.8324 10.8325 13.1554 10.8325 15.9998C10.8325 18.8442 13.1554 21.1672 15.9999 21.1672C18.868 21.1672 21.1673 18.8442 21.1673 15.9998C21.1673 13.1554 18.868 10.8324 15.9999 10.8324ZM15.9999 19.3657C14.151 19.3657 12.634 17.8724 12.634 15.9998C12.634 14.1272 14.1273 12.6339 15.9999 12.6339C17.8488 12.6339 19.3658 14.1272 19.3658 15.9998C19.3658 17.8724 17.8725 19.3657 15.9999 19.3657Z" fill="white"/>
<path d="M21.3806 11.8283C22.0483 11.8283 22.5895 11.2871 22.5895 10.6194C22.5895 9.95176 22.0483 9.41052 21.3806 9.41052C20.713 9.41052 20.1717 9.95176 20.1717 10.6194C20.1717 11.2871 20.713 11.8283 21.3806 11.8283Z" fill="white"/>
</svg>
