<svg xmlns="http://www.w3.org/2000/svg" shape-rendering="geometricPrecision" text-rendering="geometricPrecision" image-rendering="optimizeQuality" fill-rule="evenodd" clip-rule="evenodd" viewBox="0 0 388 511.77"><path fill-rule="nonzero" d="M139.82 25.97c-7.09 0-11.56-5.81-9.97-12.98C131.44 5.82 138.49 0 145.59 0H377.7c7.1 0 11.57 5.81 9.98 12.98-1.59 7.17-8.64 12.99-15.74 12.99H268.4L145.68 485.8h102.49c7.1 0 11.56 5.82 9.98 12.98-1.59 7.17-8.64 12.99-15.74 12.99H10.3c-7.1 0-11.57-5.81-9.98-12.98 1.59-7.16 8.64-12.99 15.74-12.99h103.66L242.45 25.97H139.82z"/></svg>