<?xml version="1.0" encoding="UTF-8"?>
<svg fill="none" viewBox="0 0 57 52" xmlns="http://www.w3.org/2000/svg">
<path d="m18.494 1.0994c-1.643 0.62455-4.2071 1.9966-6.0625 3.2438-2.2199 1.4922-5.2699 4.3382-6.7888 6.3348-2.7282 3.586-4.1554 7.2333-4.9756 12.716-0.55156 3.6867-0.59078 4.6227-0.64167 15.323-0.054111 11.38-0.10344 10.666 0.79833 11.568 0.87011 0.8703 0.35533 0.8312 10.954 0.8312 10.236 0 9.878 0.0208 10.724-0.6243 0.216-0.1646 0.5276-0.5291 0.6927-0.8097l0.3-0.5105 0.0301-9.6961 0.0303-9.6961-0.2401-0.5581c-0.2819-0.6552-1.0556-1.3855-1.6399-1.5478-0.2396-0.0664-2.2358-0.112-4.9304-0.1123l-4.5277-7e-4v-0.6987c0-1.5907 0.4535-4.2904 1.0213-6.0791 0.7548-2.378 1.9064-4.2953 3.5747-5.9512 1.361-1.351 2.937-2.4239 5.1524-3.5079 1.62-0.7925 1.863-0.9892 2.3081-1.8682 0.1179-0.23278 0.1965-0.64767 0.2003-1.0578 0.0056-0.59367-0.0684-0.83478-0.6156-2.006-2.0825-4.4568-2.2528-4.7396-3.1227-5.1833-0.6379-0.32545-1.5539-0.36989-2.2408-0.10889zm32.857-0.08144c-0.6158 0.11366-3.5112 1.5306-5.0791 2.4854-4.7567 2.897-8.4697 6.7782-10.642 11.125-1.5888 3.1781-2.3758 6.3885-2.93 11.954-0.1474 1.4789-0.1896 3.6901-0.2294 12.024-0.055 11.505-0.1047 10.777 0.7983 11.68 0.8701 0.8702 0.356 0.8312 10.948 0.8312 10.324 0 9.9622 0.0224 10.802-0.6696 0.2203-0.1816 0.5299-0.59 0.6883-0.9077l0.2877-0.5775-0.0024-9.617c-0.0025-9.4349-0.0068-9.6266-0.2288-10.117-0.2601-0.5748-0.6569-1.0225-1.2132-1.3689-0.3799-0.2367-0.4992-0.2436-5.1651-0.2978l-4.7762-0.0556 0.0338-0.8888c0.0877-2.2959 0.6419-5.0283 1.4117-6.9585 0.7915-1.9846 1.7393-3.4323 3.1778-4.8532 1.3091-1.2931 2.6457-2.2146 4.7437-3.2701 2.0112-1.0119 2.5733-1.4782 2.801-2.3236 0.2694-1.0006 0.1275-1.5047-1.1986-4.2613-0.7401-1.5384-1.3969-2.7498-1.6502-3.0436-0.6436-0.74633-1.5854-1.0709-2.5766-0.88788z" clip-rule="evenodd" fill="#4CBECF" fill-rule="evenodd"/>
</svg>
