<svg viewBox="0 0 32 32" fill="none" xmlns="http://www.w3.org/2000/svg">
<circle cx="16" cy="16" r="16" fill="white"/>
<g clip-path="url(#clip0_124_31)">
<path d="M9.01177 13.5648H11.9765V23.2H9.01177V13.5648ZM10.4941 8.80005C11.4471 8.80005 12.1882 9.54123 12.1882 10.4942C12.1882 11.4471 11.4471 12.1883 10.4941 12.1883C9.54118 12.2942 8.8 11.4471 8.8 10.4942C8.8 9.54123 9.54118 8.80005 10.4941 8.80005Z" fill="currentColor"/>
<path d="M13.8824 13.5648H16.7412V14.8354C17.2706 14.0942 18.2235 13.353 19.7059 13.353C22.7765 13.353 23.3059 15.3648 23.3059 17.906V23.2001H20.3412V18.5413C20.3412 17.3766 20.3412 16.0001 18.7529 16.0001C17.1647 16.0001 16.9529 17.1648 16.9529 18.4354V23.2001H13.8824V13.5648Z" fill="currentColor"/>
</g>
<defs>
<clipPath id="clip0_124_31">
<rect width="14.4" height="14.4" fill="white" transform="translate(8.8 8.80005)"/>
</clipPath>
</defs>
</svg>
