<?xml version="1.0" encoding="UTF-8"?>
<svg fill="none" viewBox="0 0 40 40" xmlns="http://www.w3.org/2000/svg">
<g clip-path="url(#g)">
<path d="m36.098 29.768c-0.5301 0.2766-1.0832 0.5224-1.644 0.7375-1.7899 0.6683-3.695 1.014-5.6078 1.0063-7.3901 0-13.835-5.0854-13.835-11.607 0.023-1.7822 0.9986-3.4108 2.5657-4.2635-6.6833 0.2842-8.404 7.2518-8.404 11.331 0 11.546 10.64 12.714 12.929 12.714 1.2368 0 3.0958-0.361 4.2174-0.7144l0.2074-0.0691c4.3019-1.4903 7.9739-4.3941 10.401-8.2505 0.1844-0.2919 0.0999-0.676-0.192-0.8603-0.1921-0.1306-0.4379-0.1306-0.6376-0.0231z" fill="url(#f)"/>
<path d="m36.098 29.768c-0.5301 0.2766-1.0832 0.5224-1.644 0.7375-1.7899 0.6683-3.695 1.014-5.6078 1.0063-7.3901 0-13.835-5.0854-13.835-11.607 0.023-1.7822 0.9986-3.4108 2.5657-4.2635-6.6833 0.2842-8.404 7.2518-8.404 11.331 0 11.546 10.64 12.714 12.929 12.714 1.2368 0 3.0958-0.361 4.2174-0.7144l0.2074-0.0691c4.3019-1.4903 7.9739-4.3941 10.401-8.2505 0.1844-0.2919 0.0999-0.676-0.192-0.8603-0.1921-0.1306-0.4379-0.1306-0.6376-0.0231z" fill="url(#e)" opacity=".35"/>
<path d="m16.516 37.718c-1.3904-0.8681-2.6042-1.9974-3.5491-3.334-4.1098-5.6232-2.873-13.513 2.7502-17.622 0.5838-0.4302 1.2137-0.8067 1.859-1.1293 0.484-0.2305 1.3213-0.6453 2.4275-0.6222 1.5825 0.0076 3.0651 0.7605 4.01 2.028 0.6299 0.845 0.9756 1.8667 0.991 2.9115 0-0.0308 3.8179-12.437-12.499-12.437-6.8523 0.00768-12.491 6.5143-12.491 12.23-0.030728 3.019 0.62224 6.0073 1.8898 8.7497 4.3019 9.1876 14.803 13.689 24.429 10.486-3.2956 1.0371-6.8754 0.5838-9.8099-1.2522l-0.0077-0.0076z" fill="url(#d)"/>
<path d="m16.516 37.718c-1.3904-0.8681-2.6042-1.9974-3.5491-3.334-4.1098-5.6232-2.873-13.513 2.7502-17.622 0.5838-0.4302 1.2137-0.8067 1.859-1.1293 0.484-0.2305 1.3213-0.6453 2.4275-0.6222 1.5825 0.0076 3.0651 0.7605 4.01 2.028 0.6299 0.845 0.9756 1.8667 0.991 2.9115 0-0.0308 3.8179-12.437-12.499-12.437-6.8523 0.00768-12.491 6.5143-12.491 12.23-0.030728 3.019 0.62224 6.0073 1.8898 8.7497 4.3019 9.1876 14.803 13.689 24.429 10.486-3.2956 1.0371-6.8754 0.5838-9.8099-1.2522l-0.0077-0.0076z" fill="url(#c)" opacity=".41"/>
<path d="m23.799 23.253c-0.1229 0.1613-0.5147 0.3918-0.5147 0.8834 0 0.4072 0.2689 0.799 0.7375 1.1293 2.2431 1.5594 6.4836 1.3597 6.4913 1.3597 1.667-0.0077 3.2955-0.4532 4.7321-1.3059 2.9345-1.7131 4.7474-4.8627 4.7551-8.2582 0.0384-3.5029-1.2522-5.8306-1.7745-6.8599-3.311-6.476-10.455-10.202-18.229-10.202-10.931 0-19.843 8.7805-19.996 19.72 0.07682-5.7077 5.7461-10.317 12.499-10.317 0.5454 0 3.6643 0.05377 6.5604 1.5748 2.5504 1.3367 3.887 2.9576 4.8166 4.5631 0.9679 1.667 1.1369 3.7719 1.1369 4.6092s-0.4225 2.0818-1.2138 3.1035z" fill="url(#b)"/>
<path d="m23.799 23.253c-0.1229 0.1613-0.5147 0.3918-0.5147 0.8834 0 0.4072 0.2689 0.799 0.7375 1.1293 2.2431 1.5594 6.4836 1.3597 6.4913 1.3597 1.667-0.0077 3.2955-0.4532 4.7321-1.3059 2.9345-1.7131 4.7474-4.8627 4.7551-8.2582 0.0384-3.5029-1.2522-5.8306-1.7745-6.8599-3.311-6.476-10.455-10.202-18.229-10.202-10.931 0-19.843 8.7805-19.996 19.72 0.07682-5.7077 5.7461-10.317 12.499-10.317 0.5454 0 3.6643 0.05377 6.5604 1.5748 2.5504 1.3367 3.887 2.9576 4.8166 4.5631 0.9679 1.667 1.1369 3.7719 1.1369 4.6092s-0.4225 2.0818-1.2138 3.1035z" fill="url(#a)"/>
</g>
<defs>
<linearGradient id="f" x1="9.1738" x2="37.028" y1="27.657" y2="27.657" gradientUnits="userSpaceOnUse">
<stop stop-color="#0C59A4" offset="0"/>
<stop stop-color="#114A8B" offset="1"/>
</linearGradient>
<radialGradient id="e" cx="0" cy="0" r="1" gradientTransform="translate(24.562 27.88) scale(14.901 14.156)" gradientUnits="userSpaceOnUse">
<stop stop-opacity="0" offset=".72"/>
<stop stop-opacity=".53" offset=".95"/>
<stop offset="1"/>
</radialGradient>
<linearGradient id="d" x1="23.872" x2="6.4692" y1="15.583" y2="34.538" gradientUnits="userSpaceOnUse">
<stop stop-color="#1B9DE2" offset="0"/>
<stop stop-color="#1595DF" offset=".16"/>
<stop stop-color="#0680D7" offset=".67"/>
<stop stop-color="#0078D4" offset="1"/>
</linearGradient>
<radialGradient id="c" cx="0" cy="0" r="1" gradientTransform="translate(11.029 31.091) rotate(-81.384) scale(22.407 18.103)" gradientUnits="userSpaceOnUse">
<stop stop-opacity="0" offset=".76"/>
<stop stop-opacity=".5" offset=".95"/>
<stop offset="1"/>
</radialGradient>
<radialGradient id="b" cx="0" cy="0" r="1" gradientTransform="translate(4.0405 7.4016) rotate(92.291) scale(31.651 67.409)" gradientUnits="userSpaceOnUse">
<stop stop-color="#35C1F1" offset="0"/>
<stop stop-color="#34C1ED" offset=".11"/>
<stop stop-color="#2FC2DF" offset=".23"/>
<stop stop-color="#2BC3D2" offset=".31"/>
<stop stop-color="#36C752" offset=".67"/>
</radialGradient>
<radialGradient id="a" cx="0" cy="0" r="1" gradientTransform="translate(37.506 12.093) rotate(73.74) scale(15.207 12.367)" gradientUnits="userSpaceOnUse">
<stop stop-color="#66EB6E" offset="0"/>
<stop stop-color="#66EB6E" stop-opacity="0" offset="1"/>
</radialGradient>
<clipPath id="g">
<rect width="40" height="40" fill="#fff"/>
</clipPath>
</defs>
</svg>
