<?xml version="1.0" encoding="UTF-8"?>
<svg fill="none" viewBox="0 0 22 22" xmlns="http://www.w3.org/2000/svg">
<g clip-path="url(#b)">
<path d="m11 22c6.0751 0 11-4.9249 11-11 0-6.0751-4.9249-11-11-11-6.0751 0-11 4.9249-11 11 0 6.0751 4.9249 11 11 11z" fill="url(#a)"/>
<path d="m18.55 6.7099-1.4539-1.4536c-0.2127-0.21273-0.5576-0.21273-0.7703 0l-7.4234 7.4239-3.2291-3.2291c-0.21273-0.21274-0.55762-0.21274-0.77036 0l-1.4539 1.4537c-0.21274 0.2127-0.21274 0.5576 0 0.7703l5.068 5.068c0.21273 0.2128 0.55762 0.2128 0.77036 0l9.2625-9.2628c0.2128-0.21274 0.2128-0.55762 0-0.77036z" fill="#fff"/>
</g>
<defs>
<linearGradient id="a" x1="10.959" x2="10.959" y1="22" gradientUnits="userSpaceOnUse">
<stop stop-color="#DEFF38" offset=".1575"/>
<stop stop-color="#4BD606" offset=".9993"/>
</linearGradient>
<clipPath id="b">
<rect width="22" height="22" fill="#fff"/>
</clipPath>
</defs>
</svg>
