<?xml version="1.0" encoding="UTF-8"?>
<svg fill="none" viewBox="0 0 22 22" xmlns="http://www.w3.org/2000/svg">
<g clip-path="url(#a)">
<path d="m11 22c6.0751 0 11-4.9249 11-11 0-6.0751-4.9249-11-11-11-6.0751 0-11 4.9249-11 11 0 6.0751 4.9249 11 11 11z" fill="#4AA74E"/>
<path d="m18.55 6.7102-1.4539-1.4536c-0.2128-0.21274-0.5577-0.21274-0.7704 0l-7.4233 7.4239-3.2291-3.2291c-0.21274-0.21273-0.55763-0.21273-0.77037 0l-1.4539 1.4536c-0.21274 0.2128-0.21274 0.5577 0 0.7704l5.068 5.068c0.21274 0.2127 0.55762 0.2127 0.77036 0l9.2626-9.2628c0.2127-0.21274 0.2127-0.55763 0-0.77037z" fill="#fff"/>
</g>
<defs>
<clipPath id="a">
<rect width="22" height="22" fill="#fff"/>
</clipPath>
</defs>
</svg>
