<?xml version="1.0" encoding="UTF-8"?>
<svg fill="none" viewBox="0 0 40 40" xmlns="http://www.w3.org/2000/svg">
<g clip-path="url(#a)" fill="#FA1E4E">
<path d="m31.956 33.389c-2.1142 1.3951-4.5313 2.1345-6.9965 2.1345-4.0354 0-7.8614-1.9743-10.497-5.4163-0.0094-0.0118-0.0183-0.0227-0.0277-0.0345-2.0217-2.3997-3.229-5.9249-3.3123-9.6504l-4e-4 -0.8741c0.0836-3.7475 1.291-7.2724 3.34-9.7062 2.6362-3.4421 6.4627-5.4163 10.498-5.4163 2.4655 0 4.883 0.73938 6.9986 2.1354 3.7749 3.4222 5.94 8.3062 5.94 13.414 0 5.108-2.1655 9.9924-5.9414 13.414m-12.874 4.6224c-9.5903-0.4524-17.103-8.3751-17.103-18.037 0-9.9572 8.0565-18.059 17.977-18.059 0.0043 0 0.0452 4.7e-4 0.0499 4.7e-4 1.5708 0.00567 3.1195 0.21794 4.6108 0.62213-4.4957 0.10779-8.7228 2.3349-11.617 6.1154-2.2949 2.7235-3.6644 6.679-3.7576 10.872v0.9167c0.09309 4.163 1.4571 8.111 3.7434 10.835 2.9206 3.8038 7.1435 6.0242 11.632 6.132-1.7847 0.4841-3.6784 0.6902-5.5361 0.6014m14.08-32.908c-3.6192-3.2563-8.289-5.0593-13.17-5.0778-0.0061-4.727e-4 -0.0479-9.455e-4 -0.0536-9.455e-4 -10.94 0-19.841 8.9497-19.841 19.95 0 10.674 8.3 19.427 18.897 19.926 0.3127 0.0147 0.6272 0.0227 0.9436 0.0227 4.884 0 9.5786-1.8017 13.217-5.074l0.0043-0.0028c4.206-3.7829 6.6184-9.2035 6.6184-14.872 0-5.6683-2.4118-11.089-6.6168-14.871z"/>
<path d="m23.574 7.4076c3.5395 2.2854 5.9767 7.0641 5.9767 12.592 0 5.5282-2.4372 10.308-5.9767 12.592 4.5181-0.3765 8.1035-5.8696 8.1035-12.592 0-6.7229-3.5855-12.216-8.1035-12.592z"/>
</g>
<defs>
<clipPath id="a">
<rect width="40" height="40" fill="#fff"/>
</clipPath>
</defs>
</svg>
