<?xml version="1.0" encoding="UTF-8"?>
<svg fill="none" viewBox="0 0 40 40" xmlns="http://www.w3.org/2000/svg">
<path d="m20 6.5994e-4c-11.045 0-20 8.9542-20 20 0 10.726 8.4441 19.48 19.047 19.976 0.3165 0.0149 0.6334 0.0234 0.9528 0.0234 5.1205 0 9.7903-1.9254 13.329-5.0897-2.3443 1.5548-5.0852 2.4494-8.0144 2.4494-4.7627 0-9.0282-2.3628-11.897-6.0887-2.2115-2.6105-3.6438-6.4693-3.7414-10.8v-0.9419c0.09751-4.3305 1.5298-8.1901 3.7408-10.8 2.8692-3.726 7.1346-6.0887 11.897-6.0887 2.9299 0 5.6712 0.89457 8.0158 2.4503-3.521-3.1498-8.1626-5.0712-13.255-5.0902-0.0253 0-0.0502-9.8801e-4 -0.0756-9.8801e-4l4e-4 8.8882e-4z" fill="url(#b)"/>
<path d="m13.417 8.7306c1.8354-2.1667 4.2056-3.4732 6.7952-3.4732 5.8225 0 10.542 6.6012 10.542 14.744 0 8.1428-4.7195 14.744-10.542 14.744-2.5896 0-4.9598-1.306-6.7947-3.4727 2.8688 3.7259 7.1339 6.0887 11.897 6.0887 2.9294 0 5.6702-0.8946 8.0144-2.4493 4.0936-3.6623 6.6713-8.9853 6.6713-14.91 0-5.9245-2.5772-11.247-6.6699-14.909-2.3448-1.5558-5.0861-2.4503-8.0157-2.4503-4.7628 0-9.0289 2.3626-11.898 6.0885z" fill="url(#a)"/>
<defs>
<linearGradient id="b" x1="16.665" x2="16.665" y1=".65259" y2="39.418" gradientUnits="userSpaceOnUse">
<stop stop-color="#FF1B2D" offset="0"/>
<stop stop-color="#FF1B2D" offset=".3"/>
<stop stop-color="#FF1B2D" offset=".614"/>
<stop stop-color="#A70014" offset="1"/>
</linearGradient>
<linearGradient id="a" x1="26.708" x2="26.708" y1="2.938" y2="37.224" gradientUnits="userSpaceOnUse">
<stop stop-color="#9C0000" offset="0"/>
<stop stop-color="#FF4B4B" offset=".7"/>
<stop stop-color="#FF4B4B" offset="1"/>
</linearGradient>
</defs>
</svg>
