<?xml version="1.0" encoding="UTF-8"?>
<svg fill="none" viewBox="0 0 16 16" xmlns="http://www.w3.org/2000/svg">
<path d="m8 0.5c-4.125 0-7.5 3.375-7.5 7.5s3.375 7.5 7.5 7.5 7.5-3.375 7.5-7.5-3.375-7.5-7.5-7.5zm-2.3775 3.7875c0.735 0 1.3275 0.5925 1.3275 1.335 0 0.735-0.5925 1.3275-1.3275 1.3275-0.7425 0-1.335-0.5925-1.335-1.3275 0-0.7425 0.5925-1.335 1.335-1.335zm4.7925 7.4625c-0.735 0-1.3275-0.6-1.3275-1.335s0.5925-1.3275 1.3275-1.3275 1.335 0.5925 1.335 1.3275-0.6 1.335-1.335 1.335zm-5.04 0.0225-1.125-1.125 6.3975-6.3975 1.125 1.125-6.3975 6.3975z" fill="#4E975A"/>
</svg>
