<svg width="28" height="28" viewBox="0 0 28 28" fill="none" xmlns="http://www.w3.org/2000/svg">
<circle cx="14" cy="14" r="14" fill="#8247E5"/>
<g clip-path="url(#clip0_711_2635)">
<path d="M18.6452 10.9888C18.3134 10.805 17.8868 10.805 17.5077 10.9888L14.8535 12.5058L13.0525 13.4712L10.4457 14.9882C10.1139 15.1721 9.68737 15.1721 9.3082 14.9882L7.27018 13.793C6.93841 13.6091 6.70143 13.2414 6.70143 12.8276V10.5291C6.70143 10.1614 6.89102 9.79361 7.27018 9.56376L9.3082 8.4145C9.63997 8.23062 10.0665 8.23062 10.4457 8.4145L12.4837 9.60973C12.8155 9.79361 13.0525 10.1614 13.0525 10.5751V12.0921L14.8535 11.0808V9.51779C14.8535 9.15003 14.6639 8.78226 14.2848 8.55241L10.4931 6.39182C10.1613 6.20794 9.73477 6.20794 9.3556 6.39182L5.46914 8.59838C5.08997 8.78226 4.90039 9.15003 4.90039 9.51779V13.839C4.90039 14.2067 5.08997 14.5745 5.46914 14.8044L9.3082 16.965C9.63997 17.1488 10.0665 17.1488 10.4457 16.965L13.0525 15.4939L14.8535 14.4826L17.4603 13.0115C17.7921 12.8276 18.2186 12.8276 18.5978 13.0115L20.6358 14.1608C20.9676 14.3447 21.2046 14.7124 21.2046 15.1261V17.4247C21.2046 17.7924 21.015 18.1602 20.6358 18.39L18.6452 19.5393C18.3134 19.7232 17.8868 19.7232 17.5077 19.5393L15.4697 18.39C15.1379 18.2061 14.9009 17.8384 14.9009 17.4247V15.9536L13.0999 16.965V18.482C13.0999 18.8497 13.2895 19.2175 13.6686 19.4473L17.5077 21.6079C17.8395 21.7918 18.266 21.7918 18.6452 21.6079L22.4842 19.4473C22.816 19.2635 23.053 18.8957 23.053 18.482V14.1148C23.053 13.747 22.8634 13.3793 22.4842 13.1494L18.6452 10.9888Z" fill="white"/>
</g>
<defs>
<clipPath id="clip0_711_2635">
<rect width="18.2" height="15.4" fill="white" transform="translate(4.90039 6.30078)"/>
</clipPath>
</defs>
</svg>
