<svg width="28" height="28" viewBox="0 0 28 28" fill="none" xmlns="http://www.w3.org/2000/svg">
<circle cx="14" cy="14" r="14" fill="#0B2545"/>
<path fill-rule="evenodd" clip-rule="evenodd" d="M18.9695 18.4147C19.0475 18.3197 19.122 18.2228 19.1945 18.1252L20.5621 18.9358H22.4768L19.7156 17.3006C19.8964 16.9667 20.0481 16.6187 20.1689 16.2602C20.4234 15.5216 20.5556 14.7485 20.5607 13.9697C20.5568 13.1872 20.4212 12.4106 20.1593 11.6705C19.8883 10.892 19.4781 10.1658 18.9476 9.5254C18.3915 8.8555 17.6886 8.31434 16.8901 7.94128C16.0581 7.54293 15.07 7.34375 13.9258 7.34375C12.8317 7.34375 11.8775 7.54293 11.0633 7.94128C10.2768 8.31768 9.5835 8.85492 9.03106 9.5161C8.49847 10.1538 8.09121 10.8812 7.82961 11.6619C7.57432 12.4062 7.4423 13.1852 7.43848 13.9697C7.43969 14.7678 7.56463 15.5613 7.8091 16.3233C8.05389 17.1033 8.44831 17.8313 8.97157 18.4691C9.52505 19.1338 10.2308 19.6637 11.0326 20.0167C11.8796 20.4049 12.8937 20.599 14.0748 20.599C15.1812 20.599 16.1386 20.3998 16.9468 20.0014C17.0658 19.943 17.1807 19.8806 17.2942 19.8162L18.6481 20.6182H20.5628L18.1797 19.2047C18.4684 18.9665 18.7329 18.702 18.9695 18.4147ZM14.9583 17.2959H13.0436L16.1208 19.1164C16.0859 19.1397 16.0524 19.1629 16.0168 19.1828C15.4652 19.5281 14.8113 19.7005 14.055 19.7C13.2481 19.7 12.5559 19.5329 11.9783 19.1987C11.4033 18.87 10.9185 18.4116 10.5648 17.8623C10.1975 17.2886 9.92873 16.6607 9.76889 16.0033C9.6005 15.3371 9.5151 14.6537 9.51452 13.9677C9.51657 13.2938 9.60617 12.6228 9.7812 11.9706C9.95149 11.3126 10.2285 10.6852 10.6018 10.1116C10.9553 9.56364 11.4293 9.09839 11.9899 8.74927C12.5465 8.40492 13.1984 8.23252 13.9456 8.23208C14.727 8.23208 15.4021 8.40448 15.971 8.74927C16.544 9.09655 17.0269 9.56726 17.3824 10.1249C17.7545 10.6999 18.0338 11.3268 18.2105 11.9839C18.3909 12.6334 18.4829 13.303 18.484 13.9757C18.4808 14.6425 18.3912 15.3063 18.2173 15.9515C18.1818 16.0843 18.1421 16.2138 18.0997 16.3426L16.8743 15.6195H14.9597L17.7209 17.2548C17.6229 17.4478 17.5148 17.6357 17.3968 17.8178C17.2514 18.042 17.0867 18.2539 16.9044 18.4512L14.9583 17.2959Z" fill="#87FF65"/>
</svg>
