<?xml version="1.0" encoding="UTF-8"?>
<svg viewBox="0 0 32 32" xmlns="http://www.w3.org/2000/svg">
<path d="m16 32c8.8366 0 16-7.1634 16-16 0-8.8366-7.1634-16-16-16-8.8366 0-16 7.1634-16 16 0 8.8366 7.1634 16 16 16z" fill="#fff"/>
<path d="m23.775 9.5052c-0.0711-0.18963-0.1422-0.23703-0.2371-0.26073-0.2607-0.09482-0.6637 0.04741-0.6637 0.04741s-14.957 5.3571-15.81 5.9497c-0.18963 0.1185-0.23704 0.2133-0.28445 0.2844-0.14222 0.4267 0.30815 0.6163 0.30815 0.6163l3.8637 1.2563s0.1422 0.0237 0.1896 0c0.877-0.5452 8.8178-5.5704 9.2682-5.7363 0.0711-0.0237 0.1185 0 0.1185 0.0474-0.1897 0.64-7.0874 6.7793-7.0874 6.7793s-0.0237 0.0237-0.0474 0.0711l-0.3556 3.8163s-0.1422 1.1615 1.0193 0c0.8296-0.8297 1.6355-1.5171 2.0148-1.8489 1.3274 0.9244 2.7496 1.92 3.3659 2.4652 0.3082 0.2607 0.5689 0.3081 0.7822 0.3081 0.5926-0.0237 0.7585-0.6637 0.7585-0.6637s2.726-10.975 2.8208-12.444c0-0.1423 0.0237-0.23709 0.0237-0.3319 0-0.16593-0.0237-0.28445-0.0474-0.35556z" fill="currentColor"/>
</svg>
