<svg viewBox="0 0 32 32" fill="none" xmlns="http://www.w3.org/2000/svg">
<path d="M16 32C24.8366 32 32 24.8366 32 16C32 7.16344 24.8366 0 16 0C7.16345 0 0 7.16344 0 16C0 24.8366 7.16345 32 16 32Z" fill="white"/>
<path d="M23.7749 9.50512C23.7038 9.31549 23.6327 9.26809 23.5378 9.24438C23.2771 9.14957 22.8741 9.29179 22.8741 9.29179C22.8741 9.29179 7.9171 14.6488 7.06377 15.2414C6.87414 15.36 6.82673 15.4548 6.77932 15.5259C6.6371 15.9525 7.08747 16.1422 7.08747 16.1422L10.9512 17.3985C10.9512 17.3985 11.0934 17.4222 11.1408 17.3985C12.0178 16.8533 19.9586 11.8281 20.409 11.6622C20.4801 11.6385 20.5275 11.6622 20.5275 11.7096C20.3378 12.3496 13.4401 18.4888 13.4401 18.4888C13.4401 18.4888 13.4164 18.5125 13.3927 18.56L13.0371 22.3763C13.0371 22.3763 12.8949 23.5377 14.0564 22.3763C14.886 21.5466 15.6919 20.8592 16.0712 20.5274C17.3986 21.4518 18.8208 22.4474 19.4371 22.9926C19.7453 23.2533 20.006 23.3007 20.2193 23.3007C20.8119 23.277 20.9779 22.637 20.9779 22.637C20.9779 22.637 23.7038 11.6622 23.7986 10.1925C23.7986 10.0503 23.8223 9.95549 23.8223 9.86068C23.8223 9.69475 23.7986 9.57623 23.7749 9.50512Z" fill="currentColor"/>
</svg>
