<?xml version="1.0" encoding="UTF-8"?>
<svg fill="none" viewBox="0 0 34 37" xmlns="http://www.w3.org/2000/svg">
<path d="m11.683 13.958-9.2583-5.1791 14.575-8.1125 14.575 8.1125-9.2583 5.1791c-0.7028-0.7333-1.5125-1.2986-2.4292-1.6958s-1.8792-0.5958-2.8875-0.5958-1.9708 0.1986-2.8875 0.5958-1.7264 0.9625-2.4292 1.6958zm3.4834 22.367-14.667-8.1583v-16.271l9.3958 5.2709c-0.09166 0.3055-0.15277 0.6037-0.18333 0.8946-0.03056 0.2897-0.04583 0.6026-0.04583 0.9387 0 1.6805 0.50413 3.1778 1.5125 4.4917 1.0083 1.3138 2.3375 2.1847 3.9875 2.6125v10.221zm1.8333-13.658c-1.0083 0-1.8712-0.3594-2.5887-1.078-0.7186-0.7175-1.078-1.5804-1.078-2.5887s0.3594-1.8718 1.078-2.5905c0.7175-0.7175 1.5804-1.0762 2.5887-1.0762s1.8718 0.3587 2.5905 1.0762c0.7174 0.7187 1.0762 1.5822 1.0762 2.5905s-0.3588 1.8712-1.0762 2.5887c-0.7187 0.7186-1.5822 1.078-2.5905 1.078zm1.8333 13.658v-10.221c1.65-0.4278 2.9792-1.2987 3.9875-2.6125 1.0084-1.3139 1.5125-2.8112 1.5125-4.4917 0-0.3361-0.0152-0.649-0.0458-0.9387-0.0306-0.2909-0.0917-0.5891-0.1833-0.8946l9.3958-5.2709v16.271l-14.667 8.1583z" fill="#4CBECF"/>
</svg>
