<svg viewBox="0 0 32 32" fill="none" xmlns="http://www.w3.org/2000/svg">
<path d="M16 32C24.8366 32 32 24.8366 32 16C32 7.16344 24.8366 0 16 0C7.16344 0 0 7.16344 0 16C0 24.8366 7.16344 32 16 32Z" fill="white"/>
<path d="M26.2162 10.88C25.9792 9.95555 25.2444 9.24444 24.32 8.98369C22.6607 8.53332 15.9762 8.53333 15.9762 8.53333C15.9762 8.53333 9.3155 8.53332 7.63253 8.98369C6.70809 9.22073 5.99698 9.95555 5.73623 10.88C5.28586 12.5393 5.28587 16.0237 5.28587 16.0237C5.28587 16.0237 5.28586 19.4844 5.73623 21.1674C5.97327 22.0919 6.70809 22.803 7.63253 23.0637C9.29179 23.5141 15.9762 23.5141 15.9762 23.5141C15.9762 23.5141 22.637 23.5141 24.32 23.0637C25.2444 22.8267 25.9555 22.0919 26.2162 21.1674C26.6666 19.5081 26.6666 16.0237 26.6666 16.0237C26.6666 16.0237 26.6666 12.5393 26.2162 10.88ZM13.8666 19.2V12.8L19.4133 16L13.8666 19.2Z" fill="currentColor"/>
</svg>
